<svg width="581" height="419" viewBox="0 0 581 419" fill="none" xmlns="http://www.w3.org/2000/svg">
<path d="M217.295 418.012H15.2001C7.12949 418.012 0.56366 411.235 0.56366 402.904V15.1073C0.56366 6.77703 7.12949 0 15.2001 0H217.295C225.366 0 231.932 6.77703 231.932 15.1073V402.904C231.932 411.235 225.366 418.012 217.295 418.012ZM15.2001 1.95333C8.17321 1.95333 2.45611 7.85432 2.45611 15.1073V402.904C2.45611 410.158 8.17321 416.059 15.2001 416.059H217.295C224.322 416.059 230.039 410.158 230.039 402.904V15.1073C230.039 7.85432 224.322 1.95333 217.295 1.95333H15.2001Z" fill="#3F3D56"/>
<path d="M579.736 197.195C578.937 195.805 575.481 197.294 574.846 196.032C574.213 194.774 577.424 192.859 579.258 188.482C579.589 187.693 581.674 182.72 580.131 181.185C577.205 178.276 563.818 190.28 559.133 186.352C558.105 185.49 557.387 183.769 554.275 180.975C553.037 179.863 552.289 179.361 551.564 179.548C550.536 179.813 550.455 181.233 549.352 184.025C547.699 188.212 546.722 187.959 545.758 191.3C545.043 193.78 545.207 195.222 544.365 195.503C543.175 195.9 542.079 193.27 540.57 193.505C539.03 193.746 538.1 196.808 537.806 199.102C537.254 203.405 538.785 206.244 539.634 209.23C540.556 212.475 541.103 217.41 538.973 224.396L517.894 285.697C522.548 273.118 536.022 238.636 541.684 225.822C543.319 222.123 545.124 218.371 548.829 216.89C552.397 215.465 557.297 216.316 563.543 214.763C564.273 214.581 566.297 214.05 566.552 212.821C566.763 211.804 565.572 211.237 565.755 210.286C566 209.009 568.342 208.993 571.22 207.521C573.249 206.482 574.513 205.247 575.6 204.185C575.928 203.865 580.8 199.046 579.736 197.195Z" fill="#F2F2F2"/>
<path d="M496.804 229.467C495.912 229.471 495.623 231.651 494.839 231.609C494.059 231.567 494.074 229.387 492.523 227.195C492.243 226.8 490.48 224.309 489.305 224.648C487.077 225.291 488.923 235.536 485.703 236.776C484.997 237.048 483.971 236.915 481.744 237.685C480.859 237.992 480.404 238.226 480.284 238.647C480.113 239.244 480.765 239.695 481.774 241.059C483.289 243.105 482.886 243.527 484.197 244.979C485.17 246.057 485.903 246.39 485.793 246.897C485.639 247.615 484.072 247.411 483.749 248.244C483.419 249.093 484.606 250.448 485.612 251.259C487.499 252.78 489.291 252.824 490.956 253.255C492.765 253.724 495.269 254.871 497.976 257.965L521.044 286.332C516.405 280.345 503.897 263.569 499.437 257.004C498.15 255.108 496.886 253.112 497.251 250.807C497.603 248.588 499.421 246.352 500.485 242.739C500.609 242.317 500.941 241.138 500.43 240.654C500.008 240.255 499.394 240.694 498.994 240.327C498.458 239.834 499.127 238.643 499.257 236.761C499.348 235.433 499.126 234.436 498.934 233.579C498.877 233.321 497.991 229.462 496.804 229.467Z" fill="#F2F2F2"/>
<path d="M514.592 233.589L514.055 228.639L514.301 228.264C515.436 226.528 516.015 224.834 516.022 223.225C516.023 222.97 516.012 222.714 516 222.453C515.954 221.421 515.896 220.137 516.544 218.641C516.908 217.807 517.929 215.876 519.464 216.115C519.878 216.175 520.19 216.37 520.428 216.6C520.462 216.543 520.498 216.485 520.537 216.423C521.015 215.67 521.393 215.348 521.758 215.037C522.038 214.798 522.328 214.552 522.782 213.968C522.981 213.713 523.136 213.488 523.267 213.299C523.664 212.728 524.182 212.047 525.097 212.059C526.074 212.107 526.586 212.941 526.925 213.493C527.531 214.478 527.805 215.187 527.987 215.658C528.053 215.83 528.128 216.024 528.167 216.084C528.481 216.562 531.041 216.115 532.006 215.952C534.172 215.579 536.047 215.257 536.819 216.667C537.372 217.675 536.961 219.009 535.56 220.737C535.124 221.275 534.659 221.684 534.247 222.004C534.589 222.214 534.894 222.537 535.018 223.044C535.31 224.243 534.311 225.446 532.05 226.622C531.488 226.916 530.732 227.308 529.673 227.496C529.174 227.585 528.725 227.606 528.34 227.618C528.332 227.848 528.28 228.096 528.145 228.352C527.747 229.105 526.921 229.463 525.675 229.377C524.304 229.303 523.175 229.033 522.18 228.797C521.31 228.591 520.561 228.417 519.973 228.457C518.882 228.548 518.042 229.449 517.055 230.618L514.592 233.589Z" fill="#F2F2F2"/>
<path d="M517.084 204.117L512.582 205.909L512.168 205.759C510.254 205.065 508.519 204.917 507.01 205.318C506.77 205.382 506.533 205.458 506.292 205.536C505.336 205.844 504.148 206.227 502.581 205.959C501.707 205.808 499.638 205.278 499.473 203.685C499.424 203.257 499.528 202.895 499.683 202.6C499.621 202.58 499.558 202.559 499.49 202.536C498.663 202.25 498.265 201.954 497.881 201.668C497.586 201.449 497.282 201.223 496.62 200.917C496.33 200.783 496.08 200.686 495.87 200.603C495.234 200.351 494.464 200.006 494.243 199.09C494.04 198.102 494.692 197.38 495.123 196.901C495.892 196.046 496.488 195.592 496.883 195.292C497.028 195.182 497.19 195.058 497.236 195.004C497.604 194.569 496.536 192.126 496.139 191.205C495.24 189.136 494.463 187.347 495.588 186.218C496.393 185.41 497.747 185.482 499.722 186.442C500.337 186.742 500.837 187.101 501.242 187.432C501.353 187.037 501.577 186.65 502.021 186.398C503.071 185.802 504.451 186.495 506.127 188.454C506.545 188.94 507.104 189.596 507.55 190.606C507.759 191.082 507.893 191.525 508.002 191.905C508.219 191.855 508.465 191.844 508.739 191.915C509.546 192.12 510.091 192.855 510.327 194.12C510.605 195.508 510.638 196.703 510.669 197.757C510.697 198.678 510.723 199.47 510.911 200.047C511.272 201.113 512.33 201.723 513.676 202.412L517.084 204.117Z" fill="#F2F2F2"/>
<path d="M514.592 189.534L514.055 184.584L514.301 184.209C515.436 182.474 516.015 180.779 516.022 179.171C516.023 178.915 516.012 178.659 516 178.399C515.954 177.366 515.896 176.083 516.544 174.586C516.908 173.752 517.929 171.821 519.464 172.06C519.878 172.12 520.19 172.316 520.428 172.545C520.462 172.488 520.498 172.431 520.537 172.368C521.015 171.615 521.393 171.293 521.758 170.982C522.038 170.743 522.328 170.497 522.782 169.914C522.981 169.658 523.136 169.433 523.267 169.245C523.664 168.673 524.182 167.992 525.097 168.004C526.074 168.052 526.586 168.886 526.925 169.438C527.531 170.423 527.805 171.133 527.987 171.604C528.053 171.776 528.128 171.969 528.167 172.029C528.481 172.507 531.041 172.06 532.006 171.898C534.172 171.525 536.047 171.202 536.819 172.612C537.372 173.621 536.961 174.954 535.56 176.683C535.124 177.22 534.659 177.629 534.247 177.949C534.589 178.16 534.894 178.482 535.018 178.989C535.31 180.189 534.311 181.391 532.05 182.567C531.488 182.861 530.732 183.253 529.673 183.442C529.174 183.53 528.725 183.552 528.34 183.564C528.332 183.793 528.28 184.042 528.145 184.297C527.747 185.05 526.921 185.409 525.675 185.323C524.304 185.249 523.175 184.979 522.18 184.742C521.31 184.536 520.561 184.362 519.973 184.403C518.882 184.493 518.042 185.394 517.055 186.563L514.592 189.534Z" fill="#F2F2F2"/>
<path d="M519.499 285.616L518.494 284.966L517.323 285.105C517.304 284.992 517.24 284.734 517.144 284.33C516.62 282.117 515.021 275.382 513.687 264.774C512.756 257.37 512.229 249.757 512.12 242.145C512.012 234.521 512.361 228.748 512.642 224.109C512.853 220.61 513.11 217.278 513.363 214.033C514.034 205.361 514.668 197.17 514.196 188.102C514.092 186.078 513.873 181.864 511.488 177.38C510.105 174.78 508.199 172.471 505.823 170.521L507.301 168.604C509.923 170.76 512.031 173.317 513.568 176.205C516.212 181.176 516.451 185.767 516.565 187.973C517.045 197.202 516.404 205.471 515.726 214.226C515.476 217.46 515.219 220.778 515.008 224.262C514.73 228.858 514.384 234.58 514.492 242.107C514.598 249.628 515.119 257.148 516.037 264.459C517.355 274.932 518.931 281.567 519.448 283.747C519.724 284.911 519.782 285.155 519.499 285.616Z" fill="#F2F2F2"/>
<path d="M501.475 174.41C501.377 174.41 501.279 174.407 501.179 174.4C499.16 174.288 497.29 173.04 495.621 170.693C494.838 169.589 494.437 168.329 493.639 165.817C493.515 165.43 492.913 163.465 492.547 160.762C492.307 158.996 492.337 158.257 492.676 157.605C493.053 156.878 493.662 156.372 494.347 156.03C494.317 155.795 494.341 155.554 494.44 155.308C494.844 154.287 495.918 154.421 496.5 154.486C496.794 154.524 497.161 154.574 497.557 154.553C498.18 154.522 498.514 154.33 499.021 154.044C499.506 153.769 500.11 153.427 501.005 153.238C502.769 152.858 504.248 153.374 504.735 153.544C507.3 154.426 508.564 156.484 510.027 158.867C510.319 159.345 511.321 161.085 511.982 163.47C512.459 165.191 512.392 165.956 512.248 166.525C511.956 167.693 511.267 168.363 509.518 169.84C507.691 171.386 506.774 172.16 505.987 172.631C504.154 173.724 503.003 174.41 501.475 174.41Z" fill="#F2F2F2"/>
<path d="M232.495 172.387H0V234.718H232.495V172.387Z" fill="#536DFE"/>
<path d="M152.683 0.976562H92.295V417.035H152.683V0.976562Z" fill="#536DFE"/>
<path opacity="0.2" d="M150.184 230.025C150.611 228.308 150.866 226.524 150.928 224.685L226.457 153.688L161.539 120.964L132.928 199.714C130.972 199.187 128.931 198.878 126.816 198.878C125.693 198.878 124.596 198.984 123.513 199.137L95.1118 120.964L30.1943 153.688L102.754 221.895C102.707 222.529 102.66 223.163 102.66 223.81C102.66 225.96 102.952 228.035 103.448 230.025C58.9705 244.372 40.7623 287.699 40.7623 287.699L96.6216 334.447C93.29 300.06 113.635 264.855 124.634 248.629C125.354 248.695 126.079 248.742 126.816 248.742C127.552 248.742 128.278 248.695 128.997 248.629C139.996 264.855 160.342 300.06 157.01 334.447L212.869 287.699C212.869 287.699 194.661 244.372 150.184 230.025Z" fill="black"/>
<path d="M156.493 317.602C155.841 317.602 155.185 317.456 154.565 317.156C152.997 316.401 152.006 314.826 151.979 313.047C151.521 282.9 134.867 253.312 124.98 238.359C124.32 237.36 123.179 236.764 121.929 236.764H121.924C120.628 236.764 119.487 237.36 118.827 238.359C108.941 253.312 92.2865 282.9 91.8282 313.047C91.8009 314.825 90.8104 316.401 89.2422 317.156C87.6584 317.922 85.8316 317.691 84.4755 316.557L38.0466 277.7C36.3893 276.312 35.9028 273.882 36.8902 271.92C41.5834 262.591 59.6518 231.149 95.1118 218.22C96.6942 217.643 97.6552 216.016 97.4482 214.264C97.3332 213.286 97.275 212.303 97.275 211.344C97.2773 210.199 96.8536 209.16 96.1125 208.464L29.3638 145.719C28.2568 144.678 27.7227 143.143 27.9343 141.614C28.1463 140.084 29.0764 138.765 30.4218 138.086L85.9965 110.073C87.1363 109.498 88.4665 109.447 89.647 109.931C90.8265 110.415 91.7584 111.397 92.2043 112.624L117.972 183.549C118.504 185.013 119.868 185.969 121.416 185.929C122.584 185.901 123.768 185.971 124.948 186.129C126.615 186.359 128.187 185.389 128.77 183.781L154.622 112.624C155.068 111.397 156 110.415 157.18 109.931C158.359 109.448 159.691 109.499 160.83 110.073L216.404 138.086C217.75 138.765 218.68 140.084 218.892 141.614C219.104 143.143 218.569 144.678 217.462 145.719L147.531 211.455C146.879 212.068 146.474 212.904 146.389 213.809C146.37 214.005 146.35 214.2 146.328 214.395C146.136 216.041 147.127 217.648 148.684 218.216C184.152 231.142 202.223 262.59 206.917 271.92C207.905 273.882 207.418 276.312 205.761 277.7L159.331 316.557C158.506 317.247 157.506 317.602 156.493 317.602Z" fill="#536DFE"/>
<path d="M550.518 418.395H355.536C347.465 418.395 340.899 411.617 340.899 403.287V300.888C340.899 292.558 347.465 285.78 355.536 285.78H550.518C558.589 285.78 565.155 292.558 565.155 300.888V403.287C565.155 411.617 558.589 418.395 550.518 418.395ZM355.536 287.734C348.508 287.734 342.791 293.635 342.791 300.888V403.287C342.791 410.541 348.508 416.442 355.536 416.442H550.518C557.545 416.442 563.262 410.541 563.262 403.287V300.888C563.262 293.635 557.545 287.734 550.518 287.734H355.536Z" fill="#3F3D56"/>
<path d="M472.598 285.897H439.285V418.278H472.598V285.897Z" fill="#536DFE"/>
<path d="M564.208 335.755H341.845V370.139H564.208V335.755Z" fill="#536DFE"/>
<path opacity="0.2" d="M446.525 374.34C447.442 374.584 448.396 374.729 449.379 374.764L487.323 417.769L504.813 380.806L462.724 364.515C463.006 363.401 463.172 362.239 463.172 361.035C463.172 360.395 463.115 359.771 463.033 359.154L504.813 342.983L487.323 306.02L450.87 347.334C450.531 347.308 450.192 347.281 449.846 347.281C448.697 347.281 447.588 347.447 446.525 347.729C438.857 322.404 415.701 312.037 415.701 312.037L390.716 343.842C409.094 341.945 427.91 353.53 436.582 359.792C436.546 360.202 436.521 360.615 436.521 361.035C436.521 361.454 436.546 361.867 436.582 362.277C427.91 368.539 409.094 380.124 390.716 378.227L415.701 410.032C415.701 410.032 438.857 399.665 446.525 374.34Z" fill="black"/>
<path d="M488.691 411.856C487.936 411.856 487.211 411.53 486.695 410.945L451.56 371.124C451.27 370.796 450.848 370.588 450.372 370.538L450.22 370.522C449.362 370.424 448.579 370.903 448.31 371.69C441.375 391.984 424.492 402.312 419.482 404.994C418.354 405.601 416.952 405.296 416.148 404.27L395.379 377.831C394.721 376.993 394.588 375.864 395.032 374.884C395.469 373.918 396.379 373.308 397.406 373.292C413.463 373.036 429.239 363.577 437.214 357.961C437.694 357.622 437.98 357.039 437.979 356.4C437.98 355.732 437.694 355.148 437.214 354.811C429.24 349.195 413.466 339.735 397.406 339.48C396.378 339.463 395.469 338.853 395.032 337.887C394.588 336.906 394.721 335.777 395.379 334.94L416.149 308.5C416.953 307.478 418.355 307.172 419.482 307.775C424.491 310.458 441.371 320.786 448.307 341.073C448.576 341.859 449.344 342.35 450.117 342.253C450.958 342.144 451.796 342.119 452.606 342.181L486.695 303.545C487.298 302.861 488.189 302.53 489.075 302.663C489.962 302.795 490.726 303.369 491.119 304.2L506.093 335.846C506.426 336.551 506.456 337.373 506.175 338.101C505.894 338.829 505.325 339.404 504.614 339.679L466.706 354.352C466.009 354.622 465.553 355.326 465.572 356.102L465.575 356.385C465.575 356.994 465.534 357.613 465.453 358.225C465.349 359.013 465.825 359.797 466.585 360.092L504.614 374.811C505.325 375.087 505.894 375.662 506.175 376.391C506.456 377.119 506.426 377.941 506.093 378.645L491.119 410.292C490.726 411.122 489.962 411.697 489.075 411.827C488.947 411.846 488.818 411.856 488.691 411.856Z" fill="#536DFE"/>
<path d="M312.101 167.682H281.607V157.318C281.607 139.947 295.271 125.844 312.101 125.844L312.101 167.682Z" fill="#2F2E41"/>
<path d="M305.342 148.335L310.585 172.676L279.862 167.41L292.382 144.39L305.342 148.335Z" fill="#FFB6B6"/>
<path opacity="0.1" d="M305.342 148.335L310.585 172.676L279.862 167.41L292.382 144.39L305.342 148.335Z" fill="black"/>
<path d="M305.342 200.332H275.887V245.329H305.342V200.332Z" fill="#FFB6B6"/>
<path d="M324.488 282.116L318.008 317.992C318.008 317.992 322.132 342.922 309.761 368.461L301.513 394.608L289.142 392.783C289.142 392.783 296.8 373.325 296.8 364.813C296.8 356.3 298.567 323.464 298.567 323.464L297.684 285.997L324.488 282.116Z" fill="#FFB6B6"/>
<path d="M287.374 392.176C287.374 392.176 301.513 386.703 302.691 394.608L302.102 398.256C302.102 398.256 307.404 414.674 299.745 415.89C292.087 417.106 285.017 418.93 284.428 415.282C283.839 411.634 283.849 407.079 285.317 403.884C286.785 400.688 287.374 392.176 287.374 392.176Z" fill="#2F2E41"/>
<path d="M279.892 276.551L276.45 312.872C276.45 312.872 265.772 335.635 270.774 363.717L271.651 391.2L284.026 392.999C284.026 392.999 281.912 372.11 284.206 363.933C286.5 355.756 293.649 323.709 293.649 323.709L304.594 287.973L279.892 276.551Z" fill="#FFB6B6"/>
<path d="M285.887 392.922C285.887 392.922 273.781 383.607 270.519 390.862L270.102 394.535C270.102 394.535 260.754 412.692 267.782 416.059C274.811 419.426 280.942 419.298 282.491 415.962C284.04 412.627 285.258 408.25 284.709 404.759C284.159 401.268 285.887 392.922 285.887 392.922Z" fill="#2F2E41"/>
<path d="M316.83 224.351L342.162 279.684C342.162 279.684 291.203 306.135 261.159 306.135L276.077 224.351L316.83 224.351Z" fill="#2F2E41"/>
<path d="M294.149 159.592L308.877 162.024L307.698 200.332L324.194 234.384L302.986 245.329C302.986 245.329 286.49 213.102 283.545 193.035C280.599 172.969 282.367 158.376 282.367 158.376L294.149 159.592Z" fill="#E6E6E6"/>
<path d="M282.956 160.808L268.228 163.24L269.406 201.548L265.871 236.816L274.119 246.545C274.119 246.545 290.614 214.317 293.56 194.251C296.505 174.185 294.738 159.592 294.738 159.592L282.956 160.808Z" fill="#E6E6E6"/>
<path d="M305.636 162.936L308.877 162.024C308.877 162.024 320.364 160.504 322.132 165.369C323.899 170.233 323.31 198.812 323.31 198.812C323.31 198.812 326.35 233.888 314.52 234.288C302.691 234.688 305.047 205.501 305.047 205.501L305.636 162.936Z" fill="#E6E6E6"/>
<path d="M300.201 155.015C308.622 155.015 315.448 147.97 315.448 139.278C315.448 130.587 308.622 123.541 300.201 123.541C291.781 123.541 284.954 130.587 284.954 139.278C284.954 147.97 291.781 155.015 300.201 155.015Z" fill="#FFB6B6"/>
<path d="M295.431 160.937C298.702 160.08 302.41 163.686 303.715 168.993C304.264 171.105 304.316 173.323 303.864 175.46L305.27 181.492L305.373 181.486L316.459 208.453C319.037 214.723 318.765 221.922 315.477 227.827C313.521 231.34 310.954 233.702 307.939 231.291C302.937 227.291 299.67 204.385 298.178 191.227L294.729 177.852C293.344 176.196 292.364 174.221 291.871 172.093C290.566 166.788 292.161 161.793 295.431 160.937Z" fill="#FFB6B6"/>
<path d="M281.188 162.936L277.948 162.024C277.948 162.024 266.461 160.504 264.693 165.369C262.926 170.233 263.515 198.812 263.515 198.812C263.515 198.812 260.475 233.888 272.305 234.288C284.134 234.688 281.778 205.501 281.778 205.501L281.188 162.936Z" fill="#E6E6E6"/>
<path d="M291.394 160.937C288.123 160.08 284.415 163.686 283.11 168.993C282.561 171.105 282.51 173.323 282.961 175.46L281.555 181.492L281.452 181.486L270.366 208.453C267.788 214.723 268.061 221.922 271.348 227.827C273.304 231.34 275.872 233.702 278.886 231.291C283.888 227.291 287.155 204.385 288.647 191.227L292.096 177.852C293.481 176.196 294.461 174.221 294.954 172.093C296.259 166.788 294.665 161.793 291.394 160.937Z" fill="#FFB6B6"/>
<path d="M271.012 152.01C271.787 149.576 273.318 147.445 274.003 144.982C274.913 141.712 276.849 148.966 277.038 145.57C277.397 139.114 286.943 122.508 292.392 119.319C297.841 116.129 300.971 117.091 306.523 120.086C306.523 120.086 309.218 120.263 312.573 121.973C315.928 123.683 318.948 126.421 320.253 130.04C321.288 132.909 321.173 136.06 321.519 139.101C322.482 147.571 327.082 155.626 326.094 164.094C325.786 166.735 324.814 169.467 322.721 171.021C320.628 172.575 317.247 172.406 315.87 170.157C315.4 169.389 315.201 168.479 314.798 167.671C314.396 166.864 313.668 166.112 312.788 166.137C311.467 166.175 310.794 168.005 311.315 169.259C311.836 170.514 313.061 171.271 314.211 171.945C311.472 173.216 308.075 172.82 305.679 170.95C303.284 169.08 301.991 165.813 302.432 162.747C303.053 158.426 309.152 159.32 309.87 155.015C310.393 151.882 312.23 146.638 311.729 143.5C311.229 140.363 308.826 144.162 311.357 142.349C308.573 143.734 302.617 134.256 299.702 133.194C296.786 132.132 294.315 129.833 292.989 126.951C289.897 131.577 287.177 130.321 286.07 135.824C284.963 141.326 285.987 153.828 290.546 156.9C288.721 158.185 287.267 160.023 286.411 162.125C285.926 163.316 285.611 164.619 284.806 165.607C283.269 167.496 280.43 167.611 278.167 166.817C275.361 165.832 272.962 163.669 271.639 160.932C270.316 158.195 270.086 154.916 271.012 152.01Z" fill="#2F2E41"/>
</svg>
