<svg width="759" height="401" viewBox="0 0 759 401" fill="none" xmlns="http://www.w3.org/2000/svg">
<path d="M679.368 316.87C679.368 151.258 545.112 17.0024 379.5 17.0024C213.888 17.0024 79.6326 151.258 79.6326 316.87" stroke="#A7CEFC" stroke-width="2" stroke-dasharray="15 15"/>
<line x1="78.0071" y1="315.37" x2="679.367" y2="315.37" stroke="#A7CEFC" stroke-width="3" stroke-dasharray="15 15"/>
<line x1="200.31" y1="75.4512" x2="326.271" y2="250.983" stroke="#A7CEFC" stroke-width="3" stroke-dasharray="15 15"/>
<line x1="580.97" y1="94.4168" x2="456.252" y2="251.976" stroke="#A7CEFC" stroke-width="3" stroke-dasharray="15 15"/>
<rect x="324.115" y="250.107" width="133.525" height="133.525" rx="8.5" stroke="#A7CEFC" stroke-width="3" stroke-dasharray="15 15"/>
<g filter="url(#filter0_d_3_321)">
<rect x="350.245" y="276.238" width="81.2649" height="81.2649" rx="10" fill="white"/>
</g>
<g filter="url(#filter1_d_3_321)">
<rect x="39" y="276.238" width="81.2649" height="81.2649" rx="10" fill="white"/>
</g>
<path d="M77.8097 319.999C77.4196 319.999 77.0295 319.85 76.7324 319.552C76.1374 318.957 76.1374 317.993 76.7324 317.398L86.6068 307.523C87.2011 306.928 88.1671 306.928 88.7614 307.523C89.3564 308.118 89.3564 309.083 88.7614 309.678L78.8869 319.552C78.5898 319.85 78.1997 319.999 77.8097 319.999Z" fill="#FFE492"/>
<path d="M77.8091 319.999C77.4191 319.999 77.0297 319.851 76.7319 319.553L71.7539 314.575C71.1589 313.98 71.1589 313.016 71.7539 312.421C72.3481 311.826 73.3134 311.826 73.9084 312.421L78.8864 317.398C79.4814 317.993 79.4814 318.958 78.8864 319.553C78.5893 319.851 78.1992 319.999 77.8091 319.999Z" fill="#FFE492"/>
<path d="M79.631 335.865C79.4725 335.865 79.3118 335.84 79.1533 335.788C69.4137 332.576 62.8701 323.526 62.8701 313.269C62.8701 312.428 63.5527 311.746 64.3938 311.746C65.2349 311.746 65.9175 312.428 65.9175 313.269C65.9175 322.207 71.6201 330.094 80.1079 332.894C80.9071 333.158 81.3414 334.019 81.0778 334.818C80.8667 335.459 80.271 335.865 79.631 335.865Z" fill="#FFE492"/>
<path d="M64.3938 314.793C63.5527 314.793 62.8701 314.111 62.8701 313.27V302.49C62.8701 301.649 63.5527 300.966 64.3938 300.966C65.2349 300.966 65.9176 301.649 65.9176 302.49V313.27C65.9176 314.111 65.2349 314.793 64.3938 314.793Z" fill="#FFE492"/>
<path d="M64.3945 304.014C63.6463 304.014 62.9934 303.462 62.8868 302.7C62.771 301.866 63.3523 301.097 64.1865 300.981C69.3336 300.266 74.3017 298.727 78.9536 296.409C79.7071 296.034 80.6221 296.34 80.9969 297.093C81.3725 297.847 81.0655 298.761 80.3128 299.137C75.3645 301.602 70.0802 303.238 64.6055 304C64.5347 304.009 64.4638 304.014 64.3945 304.014Z" fill="#FFE492"/>
<path d="M79.6325 335.866C78.9933 335.866 78.3968 335.459 78.1857 334.819C77.9221 334.02 78.3564 333.158 79.1556 332.894C87.6434 330.095 93.346 322.208 93.346 313.27C93.346 312.428 94.0286 311.746 94.8697 311.746C95.7108 311.746 96.3934 312.428 96.3934 313.27C96.3934 323.526 89.8498 332.576 80.1094 335.789C79.951 335.841 79.791 335.866 79.6325 335.866Z" fill="#FFE492"/>
<path d="M94.8704 314.793C94.0293 314.793 93.3467 314.111 93.3467 313.27V302.49C93.3467 301.649 94.0293 300.966 94.8704 300.966C95.7115 300.966 96.3941 301.649 96.3941 302.49V313.27C96.3941 314.111 95.7115 314.793 94.8704 314.793Z" fill="#FFE492"/>
<path d="M94.8719 304.014C94.8018 304.014 94.7309 304.009 94.6601 304C89.1854 303.238 83.9011 301.602 78.9529 299.137C78.2002 298.761 77.8931 297.847 78.2687 297.093C78.6436 296.34 79.5585 296.034 80.312 296.409C84.9639 298.727 89.932 300.266 95.0791 300.981C95.9126 301.097 96.4946 301.867 96.3788 302.7C96.2737 303.462 95.6208 304.014 94.8719 304.014Z" fill="#FFE492"/>
<g filter="url(#filter2_d_3_321)">
<rect x="638.735" y="276.238" width="81.2649" height="81.2649" rx="10" fill="white"/>
</g>
<g clip-path="url(#clip0_3_321)">
<path d="M693.08 310.394H689.648V302.563C689.648 297.009 685.034 292.49 679.363 292.49C673.692 292.49 669.078 297.009 669.078 302.563V310.394H665.653C662.502 310.394 659.939 312.957 659.939 316.108V335.535C659.939 338.686 662.502 341.249 665.653 341.249H693.08C696.231 341.249 698.794 338.686 698.794 335.535V316.108C698.794 312.957 696.231 310.394 693.08 310.394ZM672.887 302.563C672.887 299.11 675.792 296.3 679.363 296.3C682.934 296.3 685.839 299.11 685.839 302.563V310.394H672.887V302.563ZM694.985 335.535C694.985 336.586 694.13 337.44 693.08 337.44H665.653C664.603 337.44 663.749 336.586 663.749 335.535V316.108C663.749 315.058 664.603 314.203 665.653 314.203H693.08C694.13 314.203 694.985 315.058 694.985 316.108V335.535Z" fill="#4F9CF9"/>
<path d="M679.367 319.727C677.421 319.727 675.844 321.304 675.844 323.25C675.844 324.493 676.487 325.585 677.459 326.212V330.393C677.459 331.445 678.312 332.297 679.364 332.297C680.415 332.297 681.268 331.445 681.268 330.393V326.216C682.244 325.59 682.891 324.496 682.891 323.25C682.891 321.304 681.313 319.727 679.367 319.727Z" fill="#4F9CF9"/>
</g>
<g filter="url(#filter3_d_3_321)">
<rect x="538.779" y="35.6934" width="81.2649" height="81.2649" rx="10" fill="white"/>
</g>
<g clip-path="url(#clip1_3_321)">
<path d="M571.708 51.9463C561.881 51.9463 555.032 55.3589 555.032 58.4217C555.032 61.4846 561.881 64.8972 571.708 64.8972C581.535 64.8972 588.384 61.4845 588.384 58.4217C588.384 55.359 581.536 51.9463 571.708 51.9463Z" fill="#FFE492"/>
<path d="M555.032 88.1731V94.2296C555.032 97.2925 561.881 100.705 571.708 100.705C576.113 100.705 580.27 100.011 583.414 98.7516C585.464 97.9306 586.981 96.9123 587.77 95.8541C586.283 94.6905 584.566 93.0175 583.07 90.7093C579.777 91.7636 575.885 92.3169 571.708 92.3169C566.453 92.3169 561.537 91.4116 557.866 89.7677C556.795 89.2882 555.848 88.7538 555.032 88.1731V88.1731Z" fill="#FFE492"/>
<path d="M555.032 76.2646L555.032 82.2386C555.032 85.3013 561.881 88.7139 571.708 88.7139C575.193 88.7139 578.537 88.2769 581.339 87.4682C580.323 85.1194 579.666 82.5266 579.377 79.7209C576.98 80.1716 574.369 80.4069 571.708 80.4069C566.419 80.4069 561.48 79.4913 557.801 77.8288C556.757 77.3568 555.831 76.8328 555.032 76.2646Z" fill="#FFE492"/>
<path d="M555.032 64.3508V70.3288C555.032 73.3915 561.881 76.8042 571.708 76.8042C574.337 76.8042 576.899 76.5566 579.205 76.0833C579.209 75.5171 579.378 74.0438 580.742 73.6694C582.891 73.0793 584.395 71.6628 584.528 69.7197C584.583 68.9198 585.584 67.7989 586.33 67.81H588.384V64.3508C587.585 64.919 586.66 65.4431 585.616 65.9156C581.932 67.5821 576.993 68.5 571.708 68.5C566.424 68.5 561.485 67.5821 557.801 65.9156C556.756 65.4431 555.831 64.919 555.032 64.3508V64.3508Z" fill="#FFE492"/>
<path d="M598.683 71.4131H587.935C587.334 73.9118 585.412 75.9616 582.813 76.8554C583.016 88.8494 589.91 93.4229 592.949 94.8568C593.123 94.9387 593.329 94.9299 593.5 94.8335C596.552 93.1141 603.47 87.9959 603.792 76.8513C601.199 75.9554 599.283 73.908 598.683 71.4131ZM592.665 87.0323C591.935 87.7826 590.68 87.7414 590.001 86.945L586.576 82.9261L589.319 80.5895L591.46 83.102L597.434 76.9581L600.018 79.4693L592.665 87.0323Z" fill="#FFE492"/>
</g>
<g filter="url(#filter4_d_3_321)">
<rect x="158.459" y="35.6934" width="81.2649" height="81.2649" rx="10" fill="white"/>
</g>
<g clip-path="url(#clip2_3_321)">
<path d="M217.25 56.5421C211.123 50.4146 201.153 50.4147 195.025 56.5421C190.84 60.7272 189.387 66.8963 191.198 72.4919L173.506 90.1846C173.238 90.4525 173.087 90.8159 173.087 91.1948V99.2768C173.087 100.066 173.727 100.705 174.516 100.705H182.598C182.977 100.705 183.34 100.555 183.608 100.287L185.629 98.2661C185.938 97.9574 186.088 97.5245 186.038 97.0908L185.786 94.9212L188.793 94.6376C189.476 94.5733 190.017 94.0324 190.082 93.3494L190.365 90.3412L192.535 90.5934C192.94 90.6407 193.346 90.5124 193.65 90.2412C193.955 89.9702 194.129 89.582 194.129 89.1743V86.5137H196.741C197.117 86.5137 197.478 86.3654 197.746 86.101L201.295 82.5925C206.892 84.4067 213.064 82.9538 217.251 78.7674C223.378 72.6399 223.378 62.6696 217.25 56.5421ZM215.23 76.747C211.624 80.353 206.215 81.4785 201.45 79.6148C200.924 79.4092 200.326 79.5325 199.925 79.9293L196.154 83.6563H192.7C191.911 83.6563 191.272 84.296 191.272 85.085V87.5699L189.245 87.3344C188.863 87.2901 188.48 87.4013 188.181 87.643C187.882 87.8848 187.694 88.2367 187.658 88.6193L187.348 91.9038L184.064 92.2133C183.681 92.2494 183.329 92.4381 183.087 92.7368C182.845 93.0355 182.734 93.4191 182.778 93.8007L183.12 96.7343L182.006 97.8482H175.944V91.7868L193.857 73.8739C194.259 73.4726 194.384 72.8717 194.178 72.3432C192.314 67.578 193.44 62.1689 197.046 58.5628C202.059 53.5494 210.217 53.5494 215.23 58.5628C220.243 63.5761 220.243 71.7336 215.23 76.747Z" fill="#4F9CF9"/>
<path d="M213.209 60.583C211.537 58.9117 208.818 58.9118 207.147 60.583C205.476 62.2541 205.476 64.9733 207.147 66.6444C208.818 68.3156 211.537 68.3157 213.209 66.6444C214.88 64.9733 214.88 62.2541 213.209 60.583ZM211.188 64.624C210.631 65.181 209.725 65.1811 209.168 64.624C208.611 64.067 208.611 63.1606 209.168 62.6035C209.726 62.0451 210.63 62.0451 211.188 62.6035C211.747 63.162 211.746 64.0655 211.188 64.624Z" fill="#4F9CF9"/>
</g>
<circle cx="381.938" cy="17.0024" r="13.0024" fill="#A7CEFC"/>
<circle cx="283.607" cy="194.16" r="13.0024" fill="#A7CEFC"/>
<circle cx="562.346" cy="316.87" r="13.0024" fill="#A7CEFC"/>
<g clip-path="url(#clip3_3_321)">
<path d="M415 332.823V323.742C415 320.976 411.546 319.501 409.435 321.437L399.359 330.518C397.152 332.501 398.592 336.004 401.614 336.004H411.69C413.513 336.004 415 334.575 415 332.823Z" fill="#5986EF"/>
<path d="M367.31 336.004H377.386C380.36 336.004 381.848 332.501 379.641 330.518L369.565 321.437C367.454 319.547 364 320.976 364 323.742V332.823C364 334.575 365.487 336.004 367.31 336.004Z" fill="#5986EF"/>
<path d="M387.221 313.83L369.565 297.88C367.454 295.99 364 297.419 364 300.185V309.359C364 310.235 364.384 311.064 365.056 311.664L387.221 331.717C388.516 332.869 390.484 332.869 391.779 331.717L413.944 311.664C414.616 311.064 415 310.235 415 309.359V300.185C415 297.419 411.546 295.944 409.435 297.88L391.779 313.83C390.484 314.983 388.516 314.983 387.221 313.83Z" fill="#5986EF"/>
</g>
<defs>
<filter id="filter0_d_3_321" x="311.245" y="241.238" width="159.265" height="159.265" filterUnits="userSpaceOnUse" color-interpolation-filters="sRGB">
<feFlood flood-opacity="0" result="BackgroundImageFix"/>
<feColorMatrix in="SourceAlpha" type="matrix" values="0 0 0 0 0 0 0 0 0 0 0 0 0 0 0 0 0 0 127 0" result="hardAlpha"/>
<feMorphology radius="11" operator="erode" in="SourceAlpha" result="effect1_dropShadow_3_321"/>
<feOffset dy="4"/>
<feGaussianBlur stdDeviation="25"/>
<feComposite in2="hardAlpha" operator="out"/>
<feColorMatrix type="matrix" values="0 0 0 0 0 0 0 0 0 0 0 0 0 0 0 0 0 0 0.2 0"/>
<feBlend mode="normal" in2="BackgroundImageFix" result="effect1_dropShadow_3_321"/>
<feBlend mode="normal" in="SourceGraphic" in2="effect1_dropShadow_3_321" result="shape"/>
</filter>
<filter id="filter1_d_3_321" x="0" y="241.238" width="159.265" height="159.265" filterUnits="userSpaceOnUse" color-interpolation-filters="sRGB">
<feFlood flood-opacity="0" result="BackgroundImageFix"/>
<feColorMatrix in="SourceAlpha" type="matrix" values="0 0 0 0 0 0 0 0 0 0 0 0 0 0 0 0 0 0 127 0" result="hardAlpha"/>
<feMorphology radius="11" operator="erode" in="SourceAlpha" result="effect1_dropShadow_3_321"/>
<feOffset dy="4"/>
<feGaussianBlur stdDeviation="25"/>
<feComposite in2="hardAlpha" operator="out"/>
<feColorMatrix type="matrix" values="0 0 0 0 0 0 0 0 0 0 0 0 0 0 0 0 0 0 0.2 0"/>
<feBlend mode="normal" in2="BackgroundImageFix" result="effect1_dropShadow_3_321"/>
<feBlend mode="normal" in="SourceGraphic" in2="effect1_dropShadow_3_321" result="shape"/>
</filter>
<filter id="filter2_d_3_321" x="599.735" y="241.238" width="159.265" height="159.265" filterUnits="userSpaceOnUse" color-interpolation-filters="sRGB">
<feFlood flood-opacity="0" result="BackgroundImageFix"/>
<feColorMatrix in="SourceAlpha" type="matrix" values="0 0 0 0 0 0 0 0 0 0 0 0 0 0 0 0 0 0 127 0" result="hardAlpha"/>
<feMorphology radius="11" operator="erode" in="SourceAlpha" result="effect1_dropShadow_3_321"/>
<feOffset dy="4"/>
<feGaussianBlur stdDeviation="25"/>
<feComposite in2="hardAlpha" operator="out"/>
<feColorMatrix type="matrix" values="0 0 0 0 0 0 0 0 0 0 0 0 0 0 0 0 0 0 0.2 0"/>
<feBlend mode="normal" in2="BackgroundImageFix" result="effect1_dropShadow_3_321"/>
<feBlend mode="normal" in="SourceGraphic" in2="effect1_dropShadow_3_321" result="shape"/>
</filter>
<filter id="filter3_d_3_321" x="499.779" y="0.693359" width="159.265" height="159.265" filterUnits="userSpaceOnUse" color-interpolation-filters="sRGB">
<feFlood flood-opacity="0" result="BackgroundImageFix"/>
<feColorMatrix in="SourceAlpha" type="matrix" values="0 0 0 0 0 0 0 0 0 0 0 0 0 0 0 0 0 0 127 0" result="hardAlpha"/>
<feMorphology radius="11" operator="erode" in="SourceAlpha" result="effect1_dropShadow_3_321"/>
<feOffset dy="4"/>
<feGaussianBlur stdDeviation="25"/>
<feComposite in2="hardAlpha" operator="out"/>
<feColorMatrix type="matrix" values="0 0 0 0 0 0 0 0 0 0 0 0 0 0 0 0 0 0 0.2 0"/>
<feBlend mode="normal" in2="BackgroundImageFix" result="effect1_dropShadow_3_321"/>
<feBlend mode="normal" in="SourceGraphic" in2="effect1_dropShadow_3_321" result="shape"/>
</filter>
<filter id="filter4_d_3_321" x="119.459" y="0.693359" width="159.265" height="159.265" filterUnits="userSpaceOnUse" color-interpolation-filters="sRGB">
<feFlood flood-opacity="0" result="BackgroundImageFix"/>
<feColorMatrix in="SourceAlpha" type="matrix" values="0 0 0 0 0 0 0 0 0 0 0 0 0 0 0 0 0 0 127 0" result="hardAlpha"/>
<feMorphology radius="11" operator="erode" in="SourceAlpha" result="effect1_dropShadow_3_321"/>
<feOffset dy="4"/>
<feGaussianBlur stdDeviation="25"/>
<feComposite in2="hardAlpha" operator="out"/>
<feColorMatrix type="matrix" values="0 0 0 0 0 0 0 0 0 0 0 0 0 0 0 0 0 0 0.2 0"/>
<feBlend mode="normal" in2="BackgroundImageFix" result="effect1_dropShadow_3_321"/>
<feBlend mode="normal" in="SourceGraphic" in2="effect1_dropShadow_3_321" result="shape"/>
</filter>
<clipPath id="clip0_3_321">
<rect width="48.7589" height="48.7589" fill="white" transform="translate(654.988 292.49)"/>
</clipPath>
<clipPath id="clip1_3_321">
<rect width="48.7589" height="48.7589" fill="white" transform="translate(555.032 51.9463)"/>
</clipPath>
<clipPath id="clip2_3_321">
<rect width="48.7589" height="48.7589" fill="white" transform="translate(173.087 51.9463)"/>
</clipPath>
<clipPath id="clip3_3_321">
<rect width="51" height="39" fill="white" transform="translate(364 297)"/>
</clipPath>
</defs>
</svg>
