<svg width="321" height="471" viewBox="0 0 321 471" fill="none" xmlns="http://www.w3.org/2000/svg">
<path d="M26.6657 448.739L30.6525 443.5L28.3151 442.223L18.8121 437.012L16.6095 435.811L1.64175 452.35L0.839355 453.236L6.8973 457.019L7.80291 456.206L11.9139 452.509L10.9545 458.174L10.7412 459.419L26.8021 469.448C27.762 470.039 28.9406 470.263 30.0821 470.072C31.2235 469.881 32.2356 469.289 32.8985 468.426C35.7588 465.981 27.1199 451.442 26.6657 448.739Z" fill="#2F2E41"/>
<path d="M9.81489 111.348C10.254 109.778 8.59081 108.042 6.10006 107.47C3.6093 106.899 1.23419 107.707 0.795081 109.277C0.355973 110.847 2.01915 112.583 4.5099 113.154C7.00066 113.726 9.37578 112.917 9.81489 111.348Z" fill="#3F3D56"/>
<path d="M24.4351 127.367C24.6155 125.905 23.8515 124.628 22.7288 124.515C21.6061 124.401 20.5498 125.494 20.3695 126.956C20.1892 128.418 20.9531 129.695 22.0758 129.809C23.1985 129.922 24.2548 128.829 24.4351 127.367Z" fill="#E6E6E6"/>
<path d="M20.8839 108.084C21.0642 106.622 20.3003 105.345 19.1776 105.231C18.0549 105.118 16.9986 106.211 16.8182 107.673C16.6379 109.135 17.4018 110.412 18.5245 110.526C19.6472 110.639 20.7036 109.546 20.8839 108.084Z" fill="#3F3D56"/>
<path d="M183.133 6.50012C183.572 4.93051 181.909 3.19456 179.418 2.62276C176.927 2.05096 174.552 2.85984 174.113 4.42945C173.674 5.99907 175.337 7.73502 177.828 8.30682C180.319 8.87862 182.694 8.06973 183.133 6.50012Z" fill="white"/>
<path d="M152.716 6.32239C153.155 4.75278 151.492 3.01682 149.001 2.44502C146.51 1.87322 144.135 2.68211 143.696 4.25172C143.257 5.82133 144.92 7.55728 147.411 8.12908C149.902 8.70088 152.277 7.892 152.716 6.32239Z" fill="#3F3D56"/>
<path d="M163.785 3.05836C163.965 1.5964 163.201 0.319125 162.079 0.205486C160.956 0.0918459 159.9 1.18487 159.719 2.64683C159.539 4.10879 160.303 5.38607 161.426 5.49971C162.548 5.61335 163.605 4.52032 163.785 3.05836Z" fill="#3F3D56"/>
<path d="M97.9181 89.8841C96.2528 95.8742 90.8264 107.919 90.7788 114.131L91.1539 113.692C92.1717 114.868 93.2928 115.968 94.5062 116.981C96.1073 114.974 98.1523 113.291 100.511 112.04C99.5264 114.745 99.1498 117.602 99.4033 120.442C103.226 127.723 115.109 122.808 122.244 121.083C130.622 127.702 140.562 128.475 152.545 122.6C156.128 122.495 160.112 122.208 162.304 120.012C164.496 117.816 153.095 106.588 154.03 103.775C160.686 83.7404 160.309 85.9194 151.587 78.2807C149.667 76.5997 149.252 73.7894 146.991 72.2385C143.854 70.0891 139.502 69.845 135.504 69.7126C136.526 69.636 137.509 69.3225 138.358 68.8021C139.208 68.2817 139.895 67.5721 140.354 66.7414C140.742 65.9137 140.869 65.005 140.723 64.1157C140.577 63.2263 140.163 62.3908 139.526 61.7013C137.814 59.7754 134.728 58.9129 131.882 58.953C129.097 59.123 126.358 59.6801 123.76 60.6048C122.051 61.0264 120.439 61.7219 119.001 62.6583C118.322 63.1019 117.809 63.7226 117.531 64.4374C117.252 65.1522 117.221 65.9269 117.442 66.6581C117.778 67.317 118.275 67.8985 118.894 68.3593C119.513 68.8202 120.239 69.1484 121.018 69.3196C122.21 69.6125 123.44 69.7606 124.676 69.7598C119.006 69.791 113.48 71.3854 108.835 74.331C103.029 78.1267 99.5924 83.8961 97.9181 89.8841Z" fill="#2F2E41"/>
<path d="M155.511 102.062C158.425 91.0766 150.955 80.0315 138.828 77.3922C126.701 74.7529 114.508 81.519 111.595 92.5047C108.681 103.49 116.15 114.536 128.278 117.175C140.405 119.814 152.598 113.048 155.511 102.062Z" fill="#FFB6B6"/>
<path d="M118.477 89.0657C120.307 92.458 124.187 93.1461 127.721 93.4379C128.836 93.533 129.955 93.6117 131.08 93.6658C131.416 93.1575 131.78 92.6551 132.166 92.175C133.767 90.168 135.812 88.4851 138.17 87.2335C137.39 89.3712 136.994 91.6085 136.997 93.86C139.11 93.8772 141.226 93.8432 143.347 93.758C145.17 93.8814 146.977 93.3655 148.392 92.3169C149.808 91.2683 150.725 89.7672 150.953 88.1237C153.284 90.7137 155.938 93.0963 159.19 93.8387C162.986 94.5711 156.98 92.977 158.872 89.9073C160.413 87.639 161.03 84.7707 161.372 82.0336C161.775 78.7802 161.718 75.0968 159.7 73.3126C158.081 71.8668 151.706 76.4949 149.536 76.908C144.752 77.8394 153.969 74.8496 149.495 76.6462L149.221 77.4978C149.368 73.0431 147.002 69.0658 143.566 67.9709C141.25 67.2411 138.668 67.7293 136.165 68.2434C132.931 68.7755 129.801 69.7346 126.875 71.0899C123.534 72.7525 120.841 75.3096 119.166 78.4114C117.382 81.7807 116.897 86.1358 118.477 89.0657Z" fill="#2F2E41"/>
<path d="M139.447 66.1913C139.217 66.1594 139.8 66.1648 139.603 66.1941C139.701 66.1768 139.797 66.1523 139.89 66.1209C139.906 66.1159 140.119 66.024 139.978 66.0896C140.297 65.9586 140.567 65.7469 140.756 65.4798C141.193 64.8263 141.506 64.1107 141.681 63.363C141.895 62.3771 142.337 61.4433 142.978 60.623C143.162 60.4031 143.4 60.2256 143.674 60.1048C143.948 59.984 144.249 59.9235 144.553 59.928C144.858 59.9325 145.157 60.002 145.426 60.1308C145.695 60.2596 145.927 60.4441 146.103 60.6693C146.669 61.489 146.433 62.6139 146.251 63.5099C146.064 64.4406 145.712 65.3379 145.21 66.1671C144.363 67.5262 143.099 68.6329 141.57 69.3522C139.802 70.1933 137.781 70.4955 135.808 70.2142C135.544 70.151 135.305 70.0193 135.122 69.8354C134.938 69.6515 134.818 69.4232 134.775 69.1784C134.732 68.9336 134.769 68.6828 134.881 68.4566C134.993 68.2303 135.175 68.0384 135.405 67.9043L138.39 66.3427C138.547 66.2558 138.721 66.1978 138.902 66.1718C139.083 66.1458 139.268 66.1524 139.447 66.1913C139.625 66.2301 139.793 66.3004 139.942 66.3981C140.09 66.4958 140.216 66.6191 140.312 66.7608C140.408 66.9025 140.472 67.06 140.5 67.2241C140.529 67.3883 140.522 67.556 140.479 67.7176C140.436 67.8792 140.358 68.0316 140.251 68.1661C140.143 68.3005 140.007 68.4144 139.85 68.5013L136.865 70.0628L136.461 67.7528C136.871 67.8074 137.286 67.8203 137.699 67.7912C138.143 67.7771 138.582 67.7059 139.003 67.5798C139.409 67.4796 139.802 67.3397 140.175 67.1625C140.414 67.0484 140.646 66.9234 140.871 66.7879C140.953 66.7387 141.034 66.6881 141.113 66.6362C141.108 66.6399 141.446 66.4006 141.299 66.5116C141.672 66.2245 142.015 65.9066 142.323 65.5619C142.432 65.4397 142.53 65.3096 142.615 65.1731C142.765 64.9504 142.9 64.7201 143.021 64.4832C143.263 63.983 143.435 63.4574 143.534 62.9186C143.582 62.6914 143.616 62.4621 143.638 62.2316C143.635 62.1069 143.641 61.9822 143.656 61.8583C143.731 61.5584 143.659 62.0277 143.813 62.1347L144.454 62.4519C144.568 62.468 144.684 62.4606 144.794 62.4304C144.905 62.4002 145.006 62.3478 145.091 62.2773C145.147 62.1808 145.134 62.1972 145.052 62.3266C144.958 62.4788 144.874 62.6362 144.801 62.798C144.645 63.177 144.51 63.5629 144.398 63.9543C144.168 64.7854 143.841 65.5919 143.423 66.3601C143.016 67.135 142.349 67.7739 141.518 68.1855C140.687 68.5972 139.734 68.7606 138.794 68.6526C138.435 68.5718 138.126 68.3665 137.933 68.0809C137.74 67.7954 137.678 67.4525 137.762 67.1263C137.855 66.8034 138.082 66.5258 138.396 66.3515C138.71 66.1772 139.087 66.1198 139.447 66.1913Z" fill="#2F2E41"/>
<path d="M131.188 452.256L141.55 452.255L146.48 416.049H131.186L131.188 452.256Z" fill="#FFB6B6"/>
<path d="M144.998 453.101V446.737L142.274 446.888L131.185 447.483L128.619 447.626L126.657 468.939L126.552 470.081H133.909L134.146 468.946L135.215 463.789L137.974 468.946L138.578 470.081H158.085C159.245 470.074 160.356 469.653 161.176 468.909C161.996 468.165 162.459 467.157 162.464 466.106C163.288 462.623 147.066 455.093 144.998 453.101Z" fill="#2F2E41"/>
<path d="M15.8247 440.944L24.3565 446.271L51.0988 418.994L38.5064 411.133L15.8247 440.944Z" fill="#FFB6B6"/>
<path d="M273.89 84.1547C273.09 85.7327 271.641 86.9654 269.852 87.5905C268.063 88.2155 266.076 88.1837 264.313 87.5017C263.957 87.3579 263.614 87.1877 263.289 86.9928L218.806 117.522L204.829 106.802L261.689 77.6358C262.685 76.4776 264.077 75.6508 265.646 75.2845C267.216 74.9181 268.875 75.0328 270.366 75.6106C272.071 76.2895 273.409 77.5543 274.085 79.1268C274.761 80.6993 274.72 82.4506 273.97 83.9956C273.944 84.049 273.918 84.102 273.89 84.1547Z" fill="#FFB6B6"/>
<path d="M143.259 169.897C143.259 169.897 127.539 166.263 138.551 147.562C149.564 128.861 191.92 108.006 194.852 107.746C197.783 107.487 195.405 110.017 200.484 105.846C204.614 102.454 206.305 105.685 206.458 104.035C206.863 99.6858 213.124 107.094 212.293 101.751C211.461 96.4073 225.609 113.594 225.609 113.594C225.609 113.594 225.604 116.78 218.174 119.365C214 120.816 211.089 119.587 211.187 122.839C211.285 126.091 202.725 124.875 201.616 125.586C200.507 126.297 181.787 148.893 181.787 148.893L143.259 169.897Z" fill="#FFF692"/>
<path d="M291.948 148.539C272.731 144.206 256.233 135.688 243.334 121.627C242.351 121.082 241.647 120.205 241.376 119.189C241.106 118.174 241.291 117.103 241.891 116.211L264.327 82.9522C264.929 82.0615 265.897 81.4236 267.018 81.1785C268.139 80.9334 269.322 81.1011 270.306 81.6447L318.921 108.556C319.904 109.102 320.608 109.979 320.879 110.994C321.149 112.01 320.964 113.081 320.364 113.973L297.928 147.232C297.325 148.122 296.357 148.76 295.237 149.005C294.116 149.25 292.933 149.083 291.948 148.539Z" fill="#E6E6E6"/>
<path d="M278.986 137.86C268.868 136.859 258.352 129.534 247.733 120.559C246.812 120.048 246.152 119.227 245.899 118.276C245.646 117.325 245.819 116.321 246.381 115.486L265.663 86.9031C266.227 86.0689 267.134 85.4714 268.183 85.2418C269.233 85.0123 270.341 85.1693 271.263 85.6784L314.523 109.626C315.444 110.137 316.103 110.958 316.357 111.909C316.61 112.86 316.437 113.864 315.875 114.699L303.93 132.406C301.417 136.121 297.379 138.782 292.703 139.805C288.027 140.828 283.094 140.128 278.986 137.86Z" fill="white"/>
<path d="M297.274 109.083C297.713 107.514 296.05 105.778 293.56 105.206C291.069 104.634 288.694 105.443 288.255 107.012C287.815 108.582 289.479 110.318 291.969 110.89C294.46 111.462 296.835 110.653 297.274 109.083Z" fill="white"/>
<path d="M266.859 108.905C267.298 107.336 265.635 105.6 263.144 105.028C260.653 104.456 258.278 105.265 257.839 106.835C257.4 108.404 259.063 110.14 261.554 110.712C264.045 111.284 266.42 110.475 266.859 108.905Z" fill="#3F3D56"/>
<path d="M302.983 131.943C303.422 130.374 301.759 128.638 299.268 128.066C296.777 127.494 294.402 128.303 293.963 129.873C293.524 131.442 295.187 133.178 297.678 133.75C300.168 134.322 302.543 133.513 302.983 131.943Z" fill="#FF6584"/>
<path d="M310.074 140.563C310.254 139.101 309.49 137.824 308.368 137.71C307.245 137.597 306.189 138.69 306.008 140.152C305.828 141.614 306.592 142.891 307.715 143.005C308.837 143.118 309.894 142.025 310.074 140.563Z" fill="#E6E6E6"/>
<path d="M312.574 157.83C312.754 156.368 311.99 155.091 310.867 154.977C309.745 154.863 308.688 155.956 308.508 157.418C308.328 158.88 309.092 160.158 310.214 160.271C311.337 160.385 312.393 159.292 312.574 157.83Z" fill="#3F3D56"/>
<path d="M281.477 124.925C281.657 123.463 280.894 122.185 279.771 122.072C278.648 121.958 277.592 123.051 277.411 124.513C277.231 125.975 277.995 127.252 279.118 127.366C280.24 127.48 281.297 126.387 281.477 124.925Z" fill="#E6E6E6"/>
<path d="M296.784 119.716C296.964 118.254 296.2 116.976 295.078 116.863C293.955 116.749 292.899 117.842 292.718 119.304C292.538 120.766 293.302 122.043 294.425 122.157C295.547 122.271 296.604 121.178 296.784 119.716Z" fill="#FF6584"/>
<path d="M277.926 105.641C278.106 104.179 277.342 102.902 276.22 102.788C275.097 102.675 274.041 103.768 273.86 105.23C273.68 106.692 274.444 107.969 275.567 108.083C276.689 108.196 277.746 107.103 277.926 105.641Z" fill="#3F3D56"/>
<path d="M182.509 248.207L182.775 245.668L171.25 217.044L122.133 225.623C122.133 225.623 96.8181 253.873 102.447 272.571C103.974 277.642 84.7651 311.321 91.0871 307.689C97.409 304.057 84.5118 314.167 87.8148 314.404C91.1178 314.64 85.9307 318.166 84.9483 320.088C62.3233 364.355 26.1392 422.154 26.1392 422.154C26.1392 422.154 33.6646 441.319 45.5388 430.603C57.413 419.888 136.849 324.698 136.849 324.698C136.849 324.698 135.778 330.896 134.285 340.318C129.673 369.428 122.428 428.03 128.865 431.064C134.004 433.474 139.757 434.603 145.536 434.336C145.536 434.336 188.138 345.096 182.509 328.098" fill="#0073C6"/>
<path d="M153.467 128.822L148.896 120.214L124.129 122.932L121.568 129.955C114.391 136.451 108.478 144 104.082 152.283C97.2287 165.544 120.037 224.127 116.284 227.526C112.531 230.926 98.6258 232.758 104.881 236.922C111.135 241.087 104.881 238.424 103.322 243.175C101.763 247.927 98.6938 266.838 98.6938 266.838C98.6938 266.838 122.506 284.921 137.518 257.724C159.41 259.424 163.788 240.726 163.788 240.726L171.148 229.684C180.696 225.724 165.977 180.383 169.73 171.317C173.483 162.251 153.467 128.822 153.467 128.822Z" fill="#FFF692"/>
<path d="M176.102 225.884C176.159 222.554 176.147 218.968 177.78 215.9C179.006 213.595 181.281 211.293 184.28 211.101C186.83 210.937 189.724 212.303 189.958 214.813C190.237 217.797 187.463 220.648 185.217 222.532C182.504 224.79 179.2 226.384 175.618 227.165C175.367 227.234 175.143 227.367 174.973 227.548C174.803 227.729 174.695 227.951 174.661 228.187C174.627 228.422 174.669 228.662 174.781 228.877C174.894 229.091 175.073 229.272 175.296 229.397C178.148 230.826 180.669 232.74 182.721 235.034C184.616 237.154 186.575 239.954 186.975 242.713C187.145 243.888 186.915 245.317 185.541 245.808C184.236 246.275 182.649 245.667 181.529 245.066C178.896 243.479 176.833 241.229 175.593 238.593C174.063 235.606 173.548 232.275 174.113 229.023C174.391 227.486 171.793 226.824 171.513 228.374C170.278 235.202 173.285 243.333 180.029 247.097C183.098 248.81 187.779 249.111 189.319 245.497C190.715 242.222 188.406 238.287 186.476 235.594C184.001 232.14 180.63 229.289 176.657 227.288L176.335 229.52C180.25 228.647 183.867 226.914 186.866 224.472C189.735 222.138 192.825 218.673 192.666 214.973C192.523 211.648 189.59 209.237 186.074 208.751C182.252 208.222 178.841 210.109 176.651 212.845C173.646 216.597 173.481 221.43 173.405 225.884C173.418 226.201 173.565 226.501 173.816 226.721C174.068 226.941 174.404 227.064 174.754 227.064C175.103 227.064 175.439 226.941 175.691 226.721C175.942 226.501 176.09 226.201 176.102 225.884Z" fill="#2F2E41"/>
<path d="M66.6042 272.522C68.3045 271.719 69.592 270.348 70.1928 268.698C70.7936 267.049 70.6603 265.253 69.8212 263.691C69.6452 263.376 69.4406 263.075 69.2097 262.79L100.672 221.035L88.1616 208.918L58.8138 261.804C57.5861 262.763 56.7433 264.063 56.4169 265.501C56.0905 266.94 56.299 268.435 57.0097 269.755C57.4221 270.502 57.9929 271.169 58.6896 271.717C59.3863 272.264 60.1953 272.682 61.0703 272.946C61.9453 273.211 62.8693 273.316 63.7894 273.257C64.7094 273.198 65.6077 272.976 66.4327 272.602C66.4903 272.576 66.5475 272.549 66.6042 272.522Z" fill="#FFB6B6"/>
<path d="M154.686 150.094C154.686 150.094 149.903 136.05 129.828 146.938C109.753 157.826 88.8523 197.178 88.7108 199.844C88.5694 202.509 91.242 200.232 86.894 205.033C83.3577 208.938 87.0039 210.308 85.1927 210.528C80.417 211.109 88.8943 216.408 82.9618 215.92C77.0294 215.432 96.6783 227.383 96.6783 227.383C96.6783 227.383 100.19 227.221 102.673 220.371C104.067 216.523 102.567 213.949 106.158 213.878C109.749 213.806 107.985 206.121 108.714 205.082C109.443 204.044 133.432 185.99 133.432 185.99L154.686 150.094Z" fill="#FFF692"/>
<path d="M123.269 80.8084C138.03 65.3874 111.79 106.218 131.393 122.135C123.404 127.878 94.0985 125.84 95.7545 122.135C97.4104 118.43 102.838 83.0801 108.662 80.8084C114.487 78.5368 123.269 80.8084 123.269 80.8084Z" fill="#2F2E41"/>
<path d="M103.144 274.356C103.584 272.786 101.92 271.05 99.4297 270.478C96.9389 269.906 94.5638 270.715 94.1247 272.285C93.6856 273.855 95.3488 275.59 97.8395 276.162C100.33 276.734 102.705 275.925 103.144 274.356Z" fill="white"/>
<path d="M72.7289 274.178C73.1681 272.609 71.5049 270.873 69.0141 270.301C66.5234 269.729 64.1483 270.538 63.7091 272.108C63.27 273.677 64.9332 275.413 67.424 275.985C69.9147 276.557 72.2898 275.748 72.7289 274.178Z" fill="#3F3D56"/>
<path d="M108.853 297.216C109.292 295.646 107.629 293.91 105.138 293.339C102.647 292.767 100.272 293.576 99.8332 295.145C99.3941 296.715 101.057 298.451 103.548 299.023C106.039 299.594 108.414 298.786 108.853 297.216Z" fill="#FF6584"/>
<path d="M115.944 305.836C116.125 304.374 115.361 303.096 114.238 302.983C113.115 302.869 112.059 303.962 111.879 305.424C111.698 306.886 112.462 308.163 113.585 308.277C114.708 308.391 115.764 307.298 115.944 305.836Z" fill="#E6E6E6"/>
<path d="M118.445 323.102C118.626 321.64 117.862 320.363 116.739 320.249C115.616 320.136 114.56 321.229 114.38 322.691C114.199 324.153 114.963 325.43 116.086 325.544C117.209 325.657 118.265 324.564 118.445 323.102Z" fill="#3F3D56"/>
<path d="M87.3472 290.198C87.5276 288.736 86.7637 287.458 85.641 287.345C84.5183 287.231 83.4619 288.324 83.2816 289.786C83.1013 291.248 83.8652 292.525 84.9879 292.639C86.1106 292.753 87.1669 291.659 87.3472 290.198Z" fill="#E6E6E6"/>
<path d="M102.654 284.988C102.835 283.526 102.071 282.249 100.948 282.135C99.8254 282.022 98.7691 283.115 98.5887 284.577C98.4084 286.038 99.1723 287.316 100.295 287.429C101.418 287.543 102.474 286.45 102.654 284.988Z" fill="#FF6584"/>
<path d="M83.7965 270.915C83.9768 269.453 83.2129 268.176 82.0902 268.062C80.9675 267.948 79.9111 269.041 79.7308 270.503C79.5505 271.965 80.3144 273.243 81.4371 273.356C82.5598 273.47 83.6162 272.377 83.7965 270.915Z" fill="#3F3D56"/>
<path d="M281.996 233.649C282.435 232.079 280.771 230.343 278.281 229.771C275.79 229.199 273.415 230.008 272.976 231.578C272.537 233.148 274.2 234.883 276.691 235.455C279.181 236.027 281.556 235.218 281.996 233.649Z" fill="white"/>
<path d="M251.58 233.471C252.019 231.901 250.356 230.165 247.865 229.593C245.374 229.022 242.999 229.831 242.56 231.4C242.121 232.97 243.784 234.706 246.275 235.278C248.766 235.849 251.141 235.04 251.58 233.471Z" fill="#3F3D56"/>
<path d="M287.704 256.508C288.143 254.939 286.48 253.203 283.989 252.631C281.498 252.059 279.123 252.868 278.684 254.438C278.245 256.007 279.908 257.743 282.399 258.315C284.89 258.887 287.265 258.078 287.704 256.508Z" fill="#FF6584"/>
<path d="M294.795 265.128C294.976 263.666 294.212 262.389 293.089 262.275C291.966 262.162 290.91 263.255 290.73 264.717C290.549 266.179 291.313 267.456 292.436 267.57C293.559 267.683 294.615 266.59 294.795 265.128Z" fill="#E6E6E6"/>
<path d="M297.295 282.395C297.475 280.933 296.711 279.656 295.589 279.542C294.466 279.428 293.41 280.521 293.229 281.983C293.049 283.445 293.813 284.722 294.936 284.836C296.058 284.95 297.115 283.857 297.295 282.395Z" fill="#3F3D56"/>
<path d="M266.199 249.49C266.379 248.028 265.615 246.751 264.492 246.637C263.37 246.523 262.313 247.617 262.133 249.078C261.953 250.54 262.717 251.818 263.839 251.931C264.962 252.045 266.018 250.952 266.199 249.49Z" fill="#E6E6E6"/>
<path d="M281.505 244.281C281.686 242.819 280.922 241.541 279.799 241.428C278.676 241.314 277.62 242.407 277.44 243.869C277.259 245.331 278.023 246.608 279.146 246.722C280.269 246.836 281.325 245.742 281.505 244.281Z" fill="#FF6584"/>
<path d="M262.647 230.207C262.828 228.745 262.064 227.468 260.941 227.354C259.818 227.24 258.762 228.333 258.582 229.795C258.401 231.257 259.165 232.535 260.288 232.648C261.411 232.762 262.467 231.669 262.647 230.207Z" fill="#3F3D56"/>
<path d="M40.2319 111.526C40.671 109.956 39.0078 108.22 36.5171 107.648C34.0263 107.076 31.6512 107.885 31.2121 109.455C30.773 111.024 32.4362 112.76 34.9269 113.332C37.4177 113.904 39.7928 113.095 40.2319 111.526Z" fill="white"/>
<path d="M45.9404 134.386C46.3795 132.816 44.7163 131.08 42.2255 130.509C39.7348 129.937 37.3597 130.746 36.9206 132.315C36.4815 133.885 38.1446 135.621 40.6354 136.193C43.1261 136.764 45.5013 135.955 45.9404 134.386Z" fill="#FF6584"/>
<path d="M53.0318 143.006C53.2121 141.544 52.4482 140.266 51.3255 140.153C50.2028 140.039 49.1465 141.132 48.9662 142.594C48.7858 144.056 49.5498 145.333 50.6725 145.447C51.7952 145.561 52.8515 144.468 53.0318 143.006Z" fill="#E6E6E6"/>
<path d="M55.5333 160.272C55.7136 158.81 54.9497 157.533 53.827 157.419C52.7043 157.306 51.648 158.399 51.4676 159.861C51.2873 161.323 52.0512 162.6 53.1739 162.714C54.2966 162.827 55.3529 161.734 55.5333 160.272Z" fill="#3F3D56"/>
<path d="M39.7418 122.158C39.9221 120.696 39.1582 119.419 38.0355 119.305C36.9128 119.191 35.8565 120.284 35.6761 121.746C35.4958 123.208 36.2597 124.486 37.3824 124.599C38.5051 124.713 39.5614 123.62 39.7418 122.158Z" fill="#FF6584"/>
<path d="M188.842 29.3605C189.281 27.7909 187.617 26.0549 185.127 25.4831C182.636 24.9113 180.261 25.7202 179.822 27.2898C179.383 28.8594 181.046 30.5954 183.537 31.1672C186.027 31.739 188.402 30.9301 188.842 29.3605Z" fill="#FF6584"/>
<path d="M195.933 37.9802C196.113 36.5183 195.349 35.241 194.226 35.1274C193.104 35.0137 192.047 36.1067 191.867 37.5687C191.687 39.0307 192.451 40.3079 193.573 40.4216C194.696 40.5352 195.752 39.4422 195.933 37.9802Z" fill="#E6E6E6"/>
<path d="M198.434 55.2468C198.614 53.7848 197.851 52.5076 196.728 52.3939C195.605 52.2803 194.549 53.3733 194.369 54.8353C194.188 56.2972 194.952 57.5745 196.075 57.6882C197.198 57.8018 198.254 56.7087 198.434 55.2468Z" fill="#3F3D56"/>
<path d="M167.336 22.3416C167.517 20.8796 166.753 19.6023 165.63 19.4887C164.507 19.375 163.451 20.4681 163.271 21.93C163.09 23.392 163.854 24.6693 164.977 24.7829C166.1 24.8966 167.156 23.8035 167.336 22.3416Z" fill="#E6E6E6"/>
<path d="M182.643 17.1326C182.823 15.6706 182.059 14.3933 180.937 14.2797C179.814 14.1661 178.758 15.2591 178.577 16.7211C178.397 18.183 179.161 19.4603 180.284 19.5739C181.406 19.6876 182.463 18.5945 182.643 17.1326Z" fill="#FF6584"/>
<path d="M221.32 456.889C221.738 456.906 222.151 456.807 222.505 456.604C222.858 456.401 223.134 456.105 223.295 455.756C223.457 455.406 223.495 455.02 223.406 454.65C223.318 454.28 223.105 453.943 222.798 453.686L222.658 453.183C222.677 453.143 222.695 453.102 222.714 453.062C223.135 452.162 223.84 451.394 224.741 450.855C225.642 450.317 226.698 450.031 227.778 450.035C228.857 450.039 229.912 450.331 230.808 450.876C231.705 451.42 232.404 452.193 232.817 453.096C234.469 456.701 236.573 460.313 237.091 464.125C237.319 465.81 237.223 467.518 236.807 469.173C240.688 461.503 242.703 453.168 242.716 444.731C242.717 442.614 242.587 440.499 242.327 438.395C242.113 436.67 241.815 434.957 241.433 433.257C239.353 424.032 234.887 415.385 228.401 408.027C225.262 406.475 222.724 404.09 221.128 401.191C220.55 400.149 220.141 399.037 219.915 397.888C220.269 397.931 221.25 393.045 220.983 392.746C221.476 392.067 222.359 391.73 222.898 391.068C225.579 387.776 229.272 388.351 231.199 392.825C235.318 394.707 235.357 397.83 232.831 400.833C231.223 402.744 231.002 405.329 229.591 407.375C229.737 407.543 229.887 407.706 230.033 407.874C232.685 410.965 234.998 414.283 236.936 417.781C236.465 413.862 237.027 409.897 238.577 406.213C240.149 402.779 243.094 399.887 245.687 396.919C246.373 396.122 247.304 395.527 248.364 395.209C249.423 394.891 250.562 394.864 251.638 395.133C252.714 395.402 253.678 395.953 254.408 396.718C255.137 397.483 255.601 398.426 255.739 399.429C255.744 399.473 255.749 399.517 255.754 399.561C255.369 399.758 254.992 399.966 254.623 400.188C254.159 400.468 253.8 400.869 253.593 401.337C253.385 401.806 253.338 402.32 253.459 402.813C253.579 403.306 253.861 403.755 254.268 404.1C254.675 404.445 255.187 404.671 255.738 404.748L255.795 404.756C255.657 406.014 255.415 407.26 255.069 408.484C258.396 420.14 251.213 424.385 240.957 424.575C240.731 424.681 240.51 424.786 240.284 424.886C242.231 429.885 243.453 435.093 243.918 440.377C244.181 443.495 244.166 446.627 243.871 449.743L243.889 449.632C244.632 446.168 246.672 443.042 249.665 440.782C254.11 437.474 260.389 436.256 265.185 433.598C265.694 433.301 266.287 433.143 266.892 433.142C267.498 433.141 268.091 433.296 268.603 433.59C269.114 433.884 269.521 434.305 269.778 434.802C270.034 435.299 270.127 435.852 270.048 436.396L270.028 436.512C269.313 436.776 268.617 437.08 267.944 437.422C267.559 437.619 267.182 437.828 266.813 438.049C266.35 438.329 265.991 438.73 265.783 439.199C265.575 439.667 265.528 440.182 265.649 440.675C265.77 441.168 266.052 441.616 266.459 441.961C266.865 442.307 267.378 442.533 267.929 442.609L267.985 442.617C268.026 442.623 268.061 442.628 268.101 442.633C266.88 445.275 265.165 447.706 263.033 449.821C260.953 459.996 252.018 460.961 242.461 457.998H242.455C241.406 462.126 239.887 466.144 237.921 469.988H221.726C221.668 469.825 221.615 469.656 221.563 469.493C223.062 469.579 224.567 469.498 226.045 469.252C224.843 467.916 223.641 466.57 222.44 465.234C222.413 465.209 222.388 465.183 222.364 465.155C221.755 464.472 221.139 463.793 220.53 463.11L220.53 463.109C220.497 461.013 220.763 458.923 221.32 456.889Z" fill="#00CA75"/>
<path d="M40.1753 470.031C40.1749 470.159 40.2022 470.285 40.2559 470.403C40.3095 470.52 40.3882 470.627 40.4876 470.717C40.587 470.807 40.7051 470.879 40.8351 470.927C40.965 470.976 41.1043 471.001 41.2449 471H268.889C269.173 471 269.445 470.898 269.645 470.716C269.846 470.535 269.959 470.288 269.959 470.031C269.959 469.774 269.846 469.528 269.645 469.346C269.445 469.165 269.173 469.063 268.889 469.063H41.2449C41.1043 469.062 40.965 469.087 40.8351 469.136C40.7051 469.184 40.587 469.255 40.4876 469.345C40.3882 469.435 40.3095 469.542 40.2559 469.66C40.2022 469.778 40.1749 469.904 40.1753 470.031Z" fill="#CCCCCC"/>
</svg>
