<svg width="162" height="162" viewBox="0 0 162 162" fill="none" xmlns="http://www.w3.org/2000/svg">
<path opacity="0.3" fill-rule="evenodd" clip-rule="evenodd" d="M36.8759 117.173C37.9531 118.458 39.0959 119.707 40.3044 120.916C41.5128 122.124 42.762 123.267 44.0475 124.344L36.8759 117.173ZM53.0513 130.523L30.6972 108.169C29.6595 106.291 28.7357 104.368 27.9259 102.408L58.8116 133.294C56.8521 132.484 54.9287 131.561 53.0513 130.523ZM63.2617 134.919C64.6284 135.354 66.0083 135.737 67.3982 136.067L25.1534 93.8219C25.4831 95.2117 25.8656 96.5916 26.3009 97.9583L63.2617 134.919ZM24.4296 90.273L70.9471 136.79C72.1008 136.988 73.2595 137.15 74.4213 137.276L23.9443 86.7987C24.0704 87.9605 24.2322 89.1192 24.4296 90.273ZM23.694 83.7232L77.4968 137.526C78.5205 137.582 79.5454 137.61 80.5702 137.611L23.6095 80.6498C23.6102 81.6747 23.6383 82.6996 23.694 83.7232ZM23.674 77.8892L83.3308 137.546C84.2614 137.502 85.1911 137.435 86.119 137.345L23.8747 75.101C23.7851 76.0289 23.7182 76.9586 23.674 77.8892ZM24.1752 72.5763L88.6438 137.045C89.5015 136.923 90.3571 136.782 91.2097 136.622L24.5982 70.0104C24.4376 70.863 24.2966 71.7185 24.1752 72.5763ZM25.0886 67.6756L93.5444 136.131C94.3418 135.946 95.136 135.744 95.9264 135.524L25.6955 65.2937C25.4759 66.084 25.2736 66.8782 25.0886 67.6756ZM26.3468 63.1197L98.1003 134.873C98.8455 134.634 99.5868 134.378 100.324 134.108L27.1125 60.8965C26.8415 61.6333 26.5863 62.3745 26.3468 63.1197ZM27.9049 58.8637L102.356 133.315C103.055 133.027 103.749 132.725 104.438 132.408L28.8121 56.782C28.4952 57.4711 28.1928 58.1651 27.9049 58.8637ZM29.7319 54.8767L106.343 131.488C106.999 131.156 107.65 130.811 108.296 130.452L30.7683 52.9242C30.4094 53.5697 30.0639 54.2206 29.7319 54.8767ZM31.8058 51.1365L110.084 129.414C110.7 129.041 111.311 128.656 111.916 128.257L32.9626 49.3044C32.5643 49.9093 32.1787 50.5201 31.8058 51.1365ZM34.1107 47.6273L113.593 127.109C114.171 126.698 114.744 126.274 115.311 125.838L35.3816 45.9093C34.9459 46.4758 34.5222 47.0486 34.1107 47.6273ZM36.6352 44.3378L116.882 124.585C117.425 124.136 117.961 123.676 118.491 123.204L38.0158 42.7295C37.544 43.259 37.0838 43.7952 36.6352 44.3378ZM39.3715 41.26L119.96 121.849C120.281 121.542 120.599 121.231 120.915 120.916C121.098 120.732 121.281 120.547 121.462 120.361L40.8588 39.7584C40.6731 39.9393 40.4882 40.1216 40.3044 40.3055C39.9889 40.6209 39.678 40.9391 39.3715 41.26ZM42.3147 38.3891L122.831 118.905C123.307 118.381 123.773 117.849 124.226 117.312L43.9084 36.9939C43.3707 37.4475 42.8393 37.9125 42.3147 38.3891ZM45.466 35.7264L125.494 115.754C125.934 115.193 126.363 114.625 126.78 114.051L47.1689 34.4404C46.5952 34.857 46.0274 35.2857 45.466 35.7264ZM48.8315 33.2778L127.942 112.389C128.346 111.789 128.737 111.183 129.115 110.572L50.6479 32.1052C50.0367 32.4835 49.4311 32.8743 48.8315 33.2778ZM52.4203 31.0525L130.168 108.8C130.532 108.16 130.883 107.515 131.221 106.864L54.356 29.9993C53.7055 30.337 53.0601 30.688 52.4203 31.0525ZM56.245 29.0631L132.157 104.975C132.48 104.292 132.788 103.604 133.082 102.911L58.3086 28.1378C57.6159 28.4319 56.9279 28.7403 56.245 29.0631ZM60.3235 27.3275L133.893 100.897C134.17 100.167 134.432 99.432 134.678 98.6934L62.5266 26.5418C61.788 26.7881 61.0535 27.0501 60.3235 27.3275ZM64.6805 25.8705L135.35 96.5395C135.577 95.7568 135.786 94.9702 135.979 94.1802L67.0398 25.2408C66.2498 25.4336 65.4632 25.6435 64.6805 25.8705ZM69.3514 24.7272L136.493 91.8687C136.662 91.0251 136.812 90.1785 136.943 89.3295L71.8905 24.2775C71.0415 24.4082 70.1949 24.5581 69.3514 24.7272ZM74.3874 23.9492L137.271 86.8327C137.371 85.9159 137.449 84.9972 137.505 84.0774L77.1426 23.7155C76.2228 23.7712 75.3041 23.8491 74.3874 23.9492ZM79.8677 23.6154L137.605 81.3523C137.618 80.3423 137.604 79.332 137.564 78.3226L82.8975 23.6563C81.888 23.616 80.8777 23.6023 79.8677 23.6154ZM85.9237 23.8574L137.363 75.2963C137.257 74.1566 137.116 73.0194 136.942 71.8865L89.3335 24.2783C88.2006 24.1038 87.0635 23.9635 85.9237 23.8574ZM92.8035 24.923L136.297 68.4166C136.003 67.067 135.659 65.7261 135.266 64.3967L96.8234 25.9539C95.4939 25.5609 94.153 25.2172 92.8035 24.923ZM101.1 27.4059L133.814 60.1196C133.111 58.2907 132.31 56.4909 131.411 54.728L106.492 29.8086C104.729 28.91 102.929 28.1091 101.1 27.4059ZM113.689 34.1805L127.039 47.5309C125.23 44.9977 123.188 42.5795 120.915 40.3055C118.641 38.0316 116.222 35.9899 113.689 34.1805Z" fill="white"/>
</svg>
