<svg width="107" height="87" viewBox="0 0 107 87" fill="none" xmlns="http://www.w3.org/2000/svg">
<g clip-path="url(#clip0_3_23)">
<path d="M0 42.7779L37.2681 21.8704L0.54907 0L0 42.7779ZM6.86338 11.2791L24.2964 21.664L6.58884 31.6364L6.86338 11.2791Z" fill="#FFEE30"/>
<path d="M17.5693 77.0278L37.1986 87.0001L35.9632 64.9922L17.5693 77.0278ZM19.1479 76.959L35.2082 66.4365L36.3063 85.6934L19.1479 76.959Z" fill="#FFEE30"/>
<path d="M97.6663 43.8096L107.001 32.4617L92.5188 29.9858L97.6663 43.8096ZM97.8036 42.7779L93.3424 30.6736L105.971 32.8056L97.8036 42.7779Z" fill="#FFEE30"/>
<path d="M55.8676 40.3706L55.1812 49.724L54.4263 59.0086L62.8682 54.9508L71.2415 50.9619L63.5545 45.6663L55.8676 40.3706Z" fill="#FFEE30"/>
<path d="M92.449 78.8843L95.5375 82.323L98.626 85.7617L100.067 81.4289L101.509 77.0273L96.9788 77.9214L92.449 78.8843Z" fill="#FFEE30"/>
</g>
<defs>
<clipPath id="clip0_3_23">
<rect width="107" height="87" fill="white"/>
</clipPath>
</defs>
</svg>
