<svg width="30" height="30" viewBox="0 0 30 30" fill="none" xmlns="http://www.w3.org/2000/svg">
<path d="M24.5833 0C26.0199 0 27.3977 0.570683 28.4135 1.5865C29.4293 2.60233 30 3.98008 30 5.41667V24.5833C30 26.0199 29.4293 27.3977 28.4135 28.4135C27.3977 29.4293 26.0199 30 24.5833 30H5.41667C3.98008 30 2.60233 29.4293 1.5865 28.4135C0.570683 27.3977 0 26.0199 0 24.5833V5.41667C0 3.98008 0.570683 2.60233 1.5865 1.5865C2.60233 0.570683 3.98008 0 5.41667 0H24.5833ZM24.5833 2.5H5.41667C4.64312 2.5 3.90125 2.80729 3.35427 3.35427C2.80729 3.90125 2.5 4.64312 2.5 5.41667V24.5833C2.5 26.1933 3.80667 27.5 5.41667 27.5H24.5833C25.3569 27.5 26.0987 27.1927 26.6457 26.6457C27.1927 26.0987 27.5 25.3569 27.5 24.5833V5.41667C27.5 4.64312 27.1927 3.90125 26.6457 3.35427C26.0987 2.80729 25.3569 2.5 24.5833 2.5ZM10.615 20.4233L9.765 21.8767C9.60429 22.1483 9.34678 22.3491 9.04417 22.4387C8.74155 22.5283 8.41624 22.5001 8.13354 22.3598C7.85083 22.2195 7.63166 21.9775 7.52002 21.6823C7.40839 21.3871 7.41254 21.0606 7.53167 20.7683L7.60667 20.6167L7.71833 20.4233H10.615ZM17.155 11.7067L20.02 16.6733H22.92C23.2226 16.6735 23.5148 16.7833 23.7425 16.9825C23.9703 17.1818 24.118 17.4568 24.1583 17.7567L24.17 17.9233C24.1704 18.2257 24.0612 18.5179 23.8626 18.7459C23.664 18.9739 23.3895 19.1222 23.09 19.1633L22.92 19.175H21.4617L22.2983 20.625C22.4578 20.8996 22.5069 21.2245 22.4355 21.534C22.3641 21.8434 22.1776 22.114 21.9139 22.2909C21.6503 22.4678 21.3291 22.5378 21.0158 22.4865C20.7024 22.4353 20.4203 22.2667 20.2267 22.015L20.1333 21.8733L15.7033 14.1933L17.1533 11.7067H17.155ZM17.105 6.835C17.3662 6.98733 17.5633 7.22916 17.6598 7.51568C17.7563 7.80221 17.7458 8.11402 17.63 8.39333L17.5533 8.545L12.8033 16.6733H15.69L17.1317 19.1733H7.08667C6.77194 19.1704 6.46991 19.0488 6.2409 18.8329C6.01189 18.617 5.87276 18.3227 5.85129 18.0086C5.82982 17.6946 5.9276 17.3841 6.1251 17.139C6.32259 16.894 6.60527 16.7324 6.91667 16.6867L7.08667 16.675H9.91L13.5433 10.4517L12.44 8.54C12.2888 8.27825 12.2375 7.97057 12.2958 7.67394C12.354 7.37732 12.5177 7.11184 12.7567 6.92667L12.8983 6.83167C13.1601 6.68045 13.4678 6.62921 13.7644 6.68743C14.061 6.74565 14.3265 6.9094 14.5117 7.14833L14.605 7.29L14.9933 7.96667L15.395 7.28333C15.4778 7.14161 15.5878 7.0176 15.7186 6.91837C15.8493 6.81914 15.9984 6.74664 16.1571 6.70501C16.3159 6.66337 16.4814 6.65343 16.644 6.67573C16.8066 6.69803 16.9633 6.75215 17.105 6.835Z" fill="black"/>
</svg>
