<svg width="109" height="108" viewBox="0 0 109 108" fill="none" xmlns="http://www.w3.org/2000/svg">
<g filter="url(#filter0_d_3_56)">
<g opacity="0.1">
<circle cx="54.5" cy="50" r="50" fill="#2F70FE"/>
<circle cx="54.5" cy="50" r="50" stroke="#2F70FE"/>
</g>
<path d="M51.5 46.5C51.5 48.7 49.7 50.5 47.5 50.5H35.5C33.3 50.5 31.5 48.7 31.5 46.5V34.5C31.5 32.3 33.3 30.5 35.5 30.5H47.5C49.7 30.5 51.5 32.3 51.5 34.5V46.5Z" stroke="black" stroke-miterlimit="10" stroke-linecap="round" stroke-linejoin="round"/>
<path d="M31.5 36.5H51.5" stroke="black" stroke-miterlimit="10" stroke-linecap="round" stroke-linejoin="round"/>
<path d="M57.5 46.5C57.5 48.7 59.3 50.5 61.5 50.5H73.5C75.7 50.5 77.5 48.7 77.5 46.5V34.5C77.5 32.3 75.7 30.5 73.5 30.5H61.5C59.3 30.5 57.5 32.3 57.5 34.5V46.5Z" stroke="black" stroke-miterlimit="10" stroke-linecap="round" stroke-linejoin="round"/>
<path d="M77.5 36.5H57.5" stroke="black" stroke-miterlimit="10" stroke-linecap="round" stroke-linejoin="round"/>
<path d="M51.5 72.5C51.5 74.7 49.7 76.5 47.5 76.5H35.5C33.3 76.5 31.5 74.7 31.5 72.5V60.5C31.5 58.3 33.3 56.5 35.5 56.5H47.5C49.7 56.5 51.5 58.3 51.5 60.5V72.5Z" stroke="black" stroke-miterlimit="10" stroke-linecap="round" stroke-linejoin="round"/>
<path d="M31.5 62.5H51.5" stroke="black" stroke-miterlimit="10" stroke-linecap="round" stroke-linejoin="round"/>
<path d="M57.5 72.5C57.5 74.7 59.3 76.5 61.5 76.5H73.5C75.7 76.5 77.5 74.7 77.5 72.5V60.5C77.5 58.3 75.7 56.5 73.5 56.5H61.5C59.3 56.5 57.5 58.3 57.5 60.5V72.5Z" stroke="black" stroke-miterlimit="10" stroke-linecap="round" stroke-linejoin="round"/>
<path d="M77.5 62.5H57.5" stroke="black" stroke-miterlimit="10" stroke-linecap="round" stroke-linejoin="round"/>
</g>
<defs>
<filter id="filter0_d_3_56" x="0.5" y="0" width="108" height="108" filterUnits="userSpaceOnUse" color-interpolation-filters="sRGB">
<feFlood flood-opacity="0" result="BackgroundImageFix"/>
<feColorMatrix in="SourceAlpha" type="matrix" values="0 0 0 0 0 0 0 0 0 0 0 0 0 0 0 0 0 0 127 0" result="hardAlpha"/>
<feOffset dy="4"/>
<feGaussianBlur stdDeviation="2"/>
<feComposite in2="hardAlpha" operator="out"/>
<feColorMatrix type="matrix" values="0 0 0 0 0 0 0 0 0 0 0 0 0 0 0 0 0 0 0.25 0"/>
<feBlend mode="normal" in2="BackgroundImageFix" result="effect1_dropShadow_3_56"/>
<feBlend mode="normal" in="SourceGraphic" in2="effect1_dropShadow_3_56" result="shape"/>
</filter>
</defs>
</svg>
