<svg width="57" height="58" viewBox="0 0 57 58" fill="none" xmlns="http://www.w3.org/2000/svg">
<ellipse cx="28.419" cy="29" rx="28.1414" ry="29" fill="#1090CB"/>
<g clip-path="url(#clip0_30_63)">
<path d="M28.8057 21.196C23.2398 21.196 18.7117 25.8624 18.7117 31.5981C18.7117 37.3338 23.2398 42.0001 28.8057 42.0001C34.3715 42.0001 38.8997 37.3337 38.8997 31.5981C38.8997 25.8624 34.3715 21.196 28.8057 21.196ZM28.8057 40.4766C24.055 40.4766 20.19 36.4937 20.19 31.5981C20.19 26.7025 24.055 22.7195 28.8057 22.7195C33.5563 22.7195 37.4213 26.7025 37.4213 31.5981C37.4213 36.4937 33.5564 40.4766 28.8057 40.4766Z" fill="white"/>
<path d="M33.2139 33.5324C32.904 33.2586 32.4373 33.2953 32.1716 33.6147C31.3276 34.6287 30.1007 35.2103 28.8057 35.2103C27.5107 35.2103 26.2839 34.6288 25.4399 33.6148C25.1741 33.2954 24.7074 33.2587 24.3976 33.5325C24.0877 33.8065 24.052 34.2874 24.3178 34.6066C25.443 35.9584 27.0788 36.7337 28.8057 36.7337C30.5327 36.7337 32.1685 35.9584 33.2937 34.6065C33.5594 34.2873 33.5237 33.8064 33.2139 33.5324Z" fill="white"/>
<path d="M24.7021 30.3999C25.1103 30.3999 25.4412 30.0589 25.4412 29.6382C25.4412 29.394 25.634 29.1953 25.871 29.1953C26.108 29.1953 26.3008 29.394 26.3008 29.6382C26.3008 30.0589 26.6318 30.3999 27.04 30.3999C27.4482 30.3999 27.7792 30.0589 27.7792 29.6382C27.7792 28.554 26.9232 27.6719 25.871 27.6719C24.8189 27.6719 23.9629 28.554 23.9629 29.6382C23.9629 30.0589 24.2938 30.3999 24.7021 30.3999Z" fill="white"/>
<path d="M31.7402 27.6719C30.688 27.6719 29.832 28.554 29.832 29.6382C29.832 30.0589 30.163 30.4 30.5712 30.4C30.9794 30.4 31.3104 30.0589 31.3104 29.6382C31.3104 29.394 31.5032 29.1953 31.7402 29.1953C31.9771 29.1953 32.17 29.394 32.17 29.6382C32.17 30.0589 32.5009 30.4 32.9091 30.4C33.3173 30.4 33.6483 30.0589 33.6483 29.6382C33.6483 28.5539 32.7923 27.6719 31.7402 27.6719Z" fill="white"/>
<path d="M34.8954 20.2788H35.9738C36.382 20.2788 36.7129 19.9378 36.7129 19.5171C36.7129 19.0964 36.382 18.7554 35.9738 18.7554H34.8954C34.4872 18.7554 34.1562 19.0964 34.1562 19.5171C34.1562 19.9378 34.4872 20.2788 34.8954 20.2788Z" fill="white"/>
<path d="M37.5954 23.0343C38.0036 23.0343 38.3345 22.6933 38.3345 22.2726V21.1614C38.3345 20.7407 38.0036 20.3997 37.5954 20.3997C37.1872 20.3997 36.8562 20.7407 36.8562 21.1614V22.2726C36.8562 22.6933 37.1872 23.0343 37.5954 23.0343Z" fill="white"/>
<path d="M40.2953 18.7554H39.217C38.8087 18.7554 38.4778 19.0964 38.4778 19.5171C38.4778 19.9378 38.8087 20.2788 39.217 20.2788H40.2953C40.7035 20.2788 41.0345 19.9378 41.0345 19.5171C41.0345 19.0964 40.7035 18.7554 40.2953 18.7554Z" fill="white"/>
<path d="M37.5954 18.6347C38.0036 18.6347 38.3345 18.2936 38.3345 17.873V16.7617C38.3345 16.341 38.0036 16 37.5954 16C37.1872 16 36.8562 16.341 36.8562 16.7617V17.873C36.8562 18.2936 37.1872 18.6347 37.5954 18.6347Z" fill="white"/>
<path d="M17.4042 19.771H16.5434C16.1351 19.771 15.8042 20.112 15.8042 20.5327C15.8042 20.9534 16.1351 21.2944 16.5434 21.2944H17.4042C17.8125 21.2944 18.1434 20.9534 18.1434 20.5327C18.1434 20.112 17.8125 19.771 17.4042 19.771Z" fill="white"/>
<path d="M19.6844 22.9865V22.0994C19.6844 21.6787 19.3534 21.3376 18.9452 21.3376C18.537 21.3376 18.2061 21.6787 18.2061 22.0994V22.9865C18.2061 23.4072 18.537 23.7482 18.9452 23.7482C19.3534 23.7482 19.6844 23.4072 19.6844 22.9865Z" fill="white"/>
<path d="M20.4862 21.2944H21.3471C21.7553 21.2944 22.0863 20.9534 22.0863 20.5327C22.0863 20.112 21.7553 19.771 21.3471 19.771H20.4862C20.078 19.771 19.7471 20.112 19.7471 20.5327C19.7471 20.9534 20.078 21.2944 20.4862 21.2944Z" fill="white"/>
<path d="M18.9452 19.728C19.3534 19.728 19.6844 19.3869 19.6844 18.9663V18.0791C19.6844 17.6584 19.3534 17.3174 18.9452 17.3174C18.537 17.3174 18.2061 17.6584 18.2061 18.0791V18.9663C18.2061 19.3869 18.537 19.728 18.9452 19.728Z" fill="white"/>
</g>
<defs>
<clipPath id="clip0_30_63">
<rect width="25.2302" height="26" fill="white" transform="translate(15.8042 16)"/>
</clipPath>
</defs>
</svg>
