<svg width="58" height="58" viewBox="0 0 58 58" fill="none" xmlns="http://www.w3.org/2000/svg">
<circle cx="29" cy="29" r="29" fill="#FFF692"/>
<g clip-path="url(#clip0_30_62)">
<path d="M29.3981 21.1958C23.6624 21.1958 18.9961 25.8621 18.9961 31.5978C18.9961 37.3335 23.6624 41.9998 29.3981 41.9998C35.1337 41.9998 39.8001 37.3335 39.8001 31.5978C39.8001 25.8622 35.1338 21.1958 29.3981 21.1958ZM29.3981 40.4764C24.5025 40.4764 20.5195 36.4935 20.5195 31.5978C20.5195 26.7022 24.5025 22.7193 29.3981 22.7193C34.2937 22.7193 38.2766 26.7022 38.2766 31.5978C38.2766 36.4935 34.2937 40.4764 29.3981 40.4764Z" fill="black"/>
<path d="M33.9409 33.5324C33.6216 33.2586 33.1407 33.2953 32.8668 33.6147C31.9971 34.6287 30.7328 35.2103 29.3982 35.2103C28.0638 35.2103 26.7995 34.6288 25.9297 33.6148C25.6558 33.2954 25.175 33.2587 24.8556 33.5325C24.5363 33.8065 24.4995 34.2874 24.7734 34.6066C25.933 35.9584 27.6187 36.7337 29.3983 36.7337C31.1779 36.7337 32.8636 35.9584 34.0232 34.6065C34.297 34.2873 34.2602 33.8064 33.9409 33.5324Z" fill="black"/>
<path d="M25.1694 30.3999C25.5901 30.3999 25.9312 30.0589 25.9312 29.6382C25.9312 29.394 26.1299 29.1953 26.3741 29.1953C26.6183 29.1953 26.817 29.394 26.817 29.6382C26.817 30.0589 27.158 30.3999 27.5787 30.3999C27.9994 30.3999 28.3404 30.0589 28.3404 29.6382C28.3404 28.554 27.4583 27.6719 26.3741 27.6719C25.2898 27.6719 24.4077 28.554 24.4077 29.6382C24.4077 30.0589 24.7488 30.3999 25.1694 30.3999Z" fill="black"/>
<path d="M32.4224 27.6719C31.3382 27.6719 30.4561 28.554 30.4561 29.6382C30.4561 30.0589 30.7971 30.4 31.2178 30.4C31.6384 30.4 31.9795 30.0589 31.9795 29.6382C31.9795 29.394 32.1782 29.1953 32.4224 29.1953C32.6666 29.1953 32.8653 29.394 32.8653 29.6382C32.8653 30.0589 33.2064 30.4 33.627 30.4C34.0477 30.4 34.3888 30.0589 34.3888 29.6382C34.3888 28.5539 33.5066 27.6719 32.4224 27.6719Z" fill="black"/>
<path d="M35.6738 20.2788H36.7851C37.2057 20.2788 37.5468 19.9378 37.5468 19.5171C37.5468 19.0964 37.2057 18.7554 36.7851 18.7554H35.6738C35.2532 18.7554 34.9121 19.0964 34.9121 19.5171C34.9121 19.9378 35.2532 20.2788 35.6738 20.2788Z" fill="black"/>
<path d="M38.4561 23.0341C38.8767 23.0341 39.2178 22.693 39.2178 22.2724V21.1611C39.2178 20.7405 38.8767 20.3994 38.4561 20.3994C38.0354 20.3994 37.6943 20.7405 37.6943 21.1611V22.2724C37.6943 22.6931 38.0354 23.0341 38.4561 23.0341Z" fill="black"/>
<path d="M41.2382 18.7554H40.127C39.7063 18.7554 39.3652 19.0964 39.3652 19.5171C39.3652 19.9378 39.7063 20.2788 40.127 20.2788H41.2382C41.6589 20.2788 41.9999 19.9378 41.9999 19.5171C41.9999 19.0964 41.6589 18.7554 41.2382 18.7554Z" fill="black"/>
<path d="M38.4561 18.6347C38.8767 18.6347 39.2178 18.2936 39.2178 17.873V16.7617C39.2178 16.341 38.8767 16 38.4561 16C38.0354 16 37.6943 16.341 37.6943 16.7617V17.873C37.6943 18.2936 38.0354 18.6347 38.4561 18.6347Z" fill="black"/>
<path d="M17.6489 19.771H16.7617C16.341 19.771 16 20.112 16 20.5327C16 20.9534 16.341 21.2944 16.7617 21.2944H17.6489C18.0695 21.2944 18.4106 20.9534 18.4106 20.5327C18.4106 20.112 18.0695 19.771 17.6489 19.771Z" fill="black"/>
<path d="M19.9985 22.9863V22.0991C19.9985 21.6784 19.6575 21.3374 19.2368 21.3374C18.8161 21.3374 18.4751 21.6784 18.4751 22.0991V22.9863C18.4751 23.4069 18.8161 23.748 19.2368 23.748C19.6575 23.748 19.9985 23.4069 19.9985 22.9863Z" fill="black"/>
<path d="M20.8247 21.2944H21.7119C22.1325 21.2944 22.4736 20.9534 22.4736 20.5327C22.4736 20.112 22.1325 19.771 21.7119 19.771H20.8247C20.404 19.771 20.063 20.112 20.063 20.5327C20.063 20.9534 20.404 21.2944 20.8247 21.2944Z" fill="black"/>
<path d="M19.2368 19.728C19.6575 19.728 19.9985 19.3869 19.9985 18.9663V18.0791C19.9985 17.6584 19.6575 17.3174 19.2368 17.3174C18.8161 17.3174 18.4751 17.6584 18.4751 18.0791V18.9663C18.4751 19.3869 18.8161 19.728 19.2368 19.728Z" fill="black"/>
</g>
<defs>
<clipPath id="clip0_30_62">
<rect width="26" height="26" fill="white" transform="translate(16 16)"/>
</clipPath>
</defs>
</svg>
