<svg width="15" height="16" viewBox="0 0 15 16" fill="none" xmlns="http://www.w3.org/2000/svg">
<path d="M14.9962 15.8421V15.8415H14.9999V10.323C14.9999 7.62328 14.4246 5.54364 11.3002 5.54364C9.79826 5.54364 8.79033 6.37625 8.37884 7.1656H8.3354V5.79568H5.37305V15.8415H8.45767V10.8672C8.45767 9.55746 8.70344 8.291 10.3091 8.291C11.8911 8.291 11.9147 9.78568 11.9147 10.9512V15.8421H14.9962Z" fill="#252525"/>
<path d="M0.223877 5.76776H3.35821V15.6185H0.223877V5.76776Z" fill="#252525"/>
<path d="M1.79104 0.842224C0.802303 0.842224 0 1.64079 0 2.62492C0 3.60905 0.802303 4.42431 1.79104 4.42431C2.77979 4.42431 3.58209 3.60905 3.58209 2.62492C3.58147 1.64079 2.77916 0.842224 1.79104 0.842224V0.842224Z" fill="#252525"/>
</svg>
