<svg width="91" height="90" viewBox="0 0 91 90" fill="none" xmlns="http://www.w3.org/2000/svg">
<rect width="91" height="90" rx="20" fill="#F1E8FF"/>
<path d="M53.8281 25.6406H37.1719C36.4925 25.6415 35.8413 25.9118 35.3609 26.3921C34.8805 26.8725 34.6103 27.5238 34.6094 28.2031V62.7969C34.6103 63.4762 34.8805 64.1275 35.3609 64.6079C35.8413 65.0882 36.4925 65.3585 37.1719 65.3594H53.8281C54.5075 65.3585 55.1587 65.0882 55.6391 64.6079C56.1195 64.1275 56.3897 63.4762 56.3906 62.7969V28.2031C56.3897 27.5238 56.1195 26.8725 55.6391 26.3921C55.1587 25.9118 54.5075 25.6415 53.8281 25.6406ZM48.4981 26.9219L48.1378 28.2031H42.7974L42.4771 26.9219H48.4981ZM55.1094 62.7969C55.1089 63.1365 54.9738 63.4622 54.7336 63.7024C54.4934 63.9426 54.1678 64.0777 53.8281 64.0781H37.1719C36.8322 64.0777 36.5066 63.9426 36.2664 63.7024C36.0262 63.4622 35.8911 63.1365 35.8906 62.7969V28.2031C35.8911 27.8635 36.0262 27.5378 36.2664 27.2976C36.5066 27.0575 36.8322 26.9223 37.1719 26.9219H41.1558L41.6755 28.9991C41.7101 29.1377 41.7901 29.2607 41.9027 29.3487C42.0153 29.4366 42.154 29.4844 42.2969 29.4844H48.623C48.7627 29.4844 48.8984 29.4388 49.0097 29.3545C49.1211 29.2702 49.2018 29.1519 49.2396 29.0175L49.829 26.9219H53.8281C54.1678 26.9223 54.4934 27.0575 54.7336 27.2976C54.9738 27.5378 55.1089 27.8635 55.1094 28.2031V62.7969Z" fill="#6E00FA"/>
<path d="M42.2969 61.5156H37.8125C37.6426 61.5156 37.4796 61.5831 37.3595 61.7033C37.2394 61.8234 37.1719 61.9863 37.1719 62.1562C37.1719 62.3262 37.2394 62.4891 37.3595 62.6092C37.4796 62.7294 37.6426 62.7969 37.8125 62.7969H42.2969C42.4668 62.7969 42.6297 62.7294 42.7499 62.6092C42.87 62.4891 42.9375 62.3262 42.9375 62.1562C42.9375 61.9863 42.87 61.8234 42.7499 61.7033C42.6297 61.5831 42.4668 61.5156 42.2969 61.5156Z" fill="#6E00FA"/>
<path d="M44.8594 61.5156H44.2188C44.0488 61.5156 43.8859 61.5831 43.7658 61.7033C43.6456 61.8234 43.5781 61.9863 43.5781 62.1562C43.5781 62.3262 43.6456 62.4891 43.7658 62.6092C43.8859 62.7294 44.0488 62.7969 44.2188 62.7969H44.8594C45.0293 62.7969 45.1922 62.7294 45.3124 62.6092C45.4325 62.4891 45.5 62.3262 45.5 62.1562C45.5 61.9863 45.4325 61.8234 45.3124 61.7033C45.1922 61.5831 45.0293 61.5156 44.8594 61.5156Z" fill="#6E00FA"/>
<path d="M47.7515 41.7475C47.6794 41.7043 47.5994 41.6756 47.5162 41.6632C47.433 41.6508 47.3481 41.655 47.2665 41.6754C47.1849 41.6958 47.1081 41.7321 47.0405 41.7821C46.9729 41.8322 46.9158 41.8951 46.8726 41.9673L43.0288 48.3735C42.9414 48.5192 42.9154 48.6937 42.9566 48.8585C42.9978 49.0234 43.1028 49.1651 43.2485 49.2525C43.3942 49.3399 43.5687 49.3659 43.7335 49.3246C43.8983 49.2834 44.0401 49.1784 44.1275 49.0327L47.9712 42.6265C48.0145 42.5543 48.0432 42.4744 48.0555 42.3912C48.0679 42.308 48.0638 42.2231 48.0434 42.1415C48.023 42.0599 47.9867 41.9831 47.9366 41.9155C47.8865 41.8479 47.8236 41.7908 47.7515 41.7475Z" fill="#6E00FA"/>
<path d="M49.8441 41.8966C49.7915 41.8309 49.7265 41.7762 49.6528 41.7357C49.5791 41.6951 49.4981 41.6694 49.4145 41.6602C49.2456 41.6414 49.0762 41.6906 48.9435 41.7968C48.8108 41.9029 48.7258 42.0575 48.707 42.2264C48.6883 42.3953 48.7374 42.5647 48.8436 42.6974L51.0858 45.5001L48.8436 48.3029C48.7374 48.4355 48.6883 48.605 48.707 48.7739C48.7258 48.9428 48.8108 49.0973 48.9435 49.2035C49.0762 49.3097 49.2456 49.3588 49.4145 49.3401C49.5834 49.3214 49.7379 49.2363 49.8441 49.1036L52.4066 45.9005C52.4976 45.7869 52.5472 45.6457 52.5472 45.5001C52.5472 45.3546 52.4976 45.2134 52.4066 45.0997L49.8441 41.8966Z" fill="#6E00FA"/>
<path d="M41.1559 49.1037C41.2621 49.2363 41.4167 49.3214 41.5856 49.3401C41.7545 49.3588 41.9239 49.3097 42.0566 49.2035C42.1892 49.0973 42.2743 48.9428 42.293 48.7739C42.3117 48.605 42.2626 48.4355 42.1564 48.3029L39.9142 45.5001L42.1564 42.6974C42.209 42.6317 42.2481 42.5563 42.2716 42.4755C42.295 42.3947 42.3023 42.31 42.293 42.2264C42.2837 42.1428 42.2581 42.0618 42.2175 41.9881C42.1769 41.9143 42.1222 41.8493 42.0566 41.7968C41.9909 41.7442 41.9155 41.705 41.8346 41.6816C41.7538 41.6582 41.6692 41.6509 41.5856 41.6602C41.5019 41.6694 41.4209 41.6951 41.3472 41.7357C41.2735 41.7762 41.2085 41.8309 41.1559 41.8966L38.5934 45.0997C38.5024 45.2134 38.4529 45.3546 38.4529 45.5001C38.4529 45.6457 38.5024 45.7869 38.5934 45.9005L41.1559 49.1037Z" fill="#6E00FA"/>
</svg>
