<svg width="24" height="30" viewBox="0 0 24 30" fill="none" xmlns="http://www.w3.org/2000/svg">
<path d="M0 1.84102V28.1576C0.000151898 28.2147 0.0148235 28.2705 0.042175 28.318C0.0695266 28.3654 0.10834 28.4024 0.15375 28.4244C0.199159 28.4464 0.249142 28.4523 0.297431 28.4414C0.34572 28.4305 0.390166 28.4033 0.425195 28.3632L12.2308 15L0.425195 1.63545C0.390166 1.59536 0.34572 1.56817 0.297431 1.55728C0.249142 1.5464 0.199159 1.55231 0.15375 1.57426C0.10834 1.59622 0.0695266 1.63324 0.042175 1.6807C0.0148235 1.72815 0.000151898 1.78393 0 1.84102ZM17.1809 9.509L2.37809 0.0430562L2.36886 0.0370295C2.11386 -0.123683 1.87155 0.276759 2.0804 0.509791L13.6841 13.3882L17.1809 9.509ZM2.08155 29.4902C1.87155 29.7232 2.11386 30.1237 2.37001 29.963L2.37925 29.9569L17.1809 20.491L13.6841 16.6105L2.08155 29.4902ZM23.1567 13.3259L19.023 10.6835L15.1362 15L19.023 19.3144L23.1567 16.6741C24.2811 15.9529 24.2811 14.0471 23.1567 13.3259Z" fill="black"/>
</svg>
