<svg width="17" height="15" viewBox="0 0 17 15" fill="none" xmlns="http://www.w3.org/2000/svg">
<path d="M17 2.07116C16.3678 2.34847 15.6942 2.53229 14.9919 2.62154C15.7144 2.19016 16.2658 1.51229 16.5251 0.695224C15.8514 1.09685 15.1077 1.38054 14.3151 1.53885C13.6754 0.857787 12.7638 0.435974 11.7693 0.435974C9.83981 0.435974 8.28644 2.0021 8.28644 3.92204C8.28644 4.19829 8.30981 4.46391 8.36719 4.71679C5.46975 4.57547 2.90594 3.18679 1.18362 1.07135C0.882937 1.59304 0.706563 2.19016 0.706563 2.83297C0.706563 4.03997 1.32812 5.10991 2.25463 5.72935C1.69469 5.71872 1.14538 5.55616 0.68 5.3001C0.68 5.31072 0.68 5.32454 0.68 5.33835C0.68 7.03197 1.88806 8.43872 3.47225 8.76279C3.18856 8.84035 2.87937 8.87754 2.5585 8.87754C2.33538 8.87754 2.11012 8.86479 1.89869 8.81804C2.35025 10.1982 3.63163 11.2129 5.15525 11.2458C3.9695 12.1734 2.46394 12.7323 0.834063 12.7323C0.54825 12.7323 0.274125 12.7195 0 12.6845C1.54381 13.68 3.37344 14.2485 5.3465 14.2485C11.7597 14.2485 15.266 8.93597 15.266 4.3311C15.266 4.17704 15.2607 4.02829 15.2533 3.8806C15.9449 3.38972 16.5261 2.77666 17 2.07116Z" fill="#252525"/>
</svg>
