<svg width="91" height="90" viewBox="0 0 91 90" fill="none" xmlns="http://www.w3.org/2000/svg">
<rect width="91" height="90" rx="20" fill="#FFF2F2"/>
<g clip-path="url(#clip0_68_144)">
<path d="M45.5 25C34.1956 25 25 34.1965 25 45.5C25 56.8035 34.1956 66 45.5 66C56.8044 66 66 56.8035 66 45.5C66 34.1965 56.8044 25 45.5 25ZM45.5 64.2917C35.1382 64.2917 26.7083 55.8618 26.7083 45.5C26.7083 35.1382 35.1382 26.7083 45.5 26.7083C55.8618 26.7083 64.2917 35.1382 64.2917 45.5C64.2917 55.8618 55.8618 64.2917 45.5 64.2917Z" fill="#FF4E4E"/>
<path d="M41.2291 33.5415H36.1041C34.6911 33.5415 33.5416 34.6909 33.5416 36.104V41.229C33.5416 42.6421 34.6911 43.7915 36.1041 43.7915H41.2291C42.6422 43.7915 43.7916 42.6421 43.7916 41.229V36.104C43.7916 34.6909 42.6422 33.5415 41.2291 33.5415ZM42.0832 41.229C42.0832 41.7003 41.6995 42.0832 41.229 42.0832H36.104C35.6336 42.0832 35.2499 41.7003 35.2499 41.229V36.104C35.2499 35.6327 35.6336 35.2498 36.104 35.2498H41.229C41.6995 35.2498 42.0832 35.6327 42.0832 36.104V41.229Z" fill="#FF4E4E"/>
<path d="M54.8959 33.5415H49.7709C48.3578 33.5415 47.2084 34.6909 47.2084 36.104V41.229C47.2084 42.6421 48.3578 43.7915 49.7709 43.7915H54.8959C56.3089 43.7915 57.4584 42.6421 57.4584 41.229V36.104C57.4584 34.6909 56.3089 33.5415 54.8959 33.5415ZM55.7501 41.229C55.7501 41.7003 55.3663 42.0832 54.8959 42.0832H49.7709C49.3004 42.0832 48.9167 41.7003 48.9167 41.229V36.104C48.9167 35.6327 49.3004 35.2498 49.7709 35.2498H54.8959C55.3663 35.2498 55.7501 35.6327 55.7501 36.104V41.229Z" fill="#FF4E4E"/>
<path d="M41.2291 47.2085H36.1041C34.6911 47.2085 33.5416 48.3579 33.5416 49.771V54.896C33.5416 56.3091 34.6911 57.4585 36.1041 57.4585H41.2291C42.6422 57.4585 43.7916 56.3091 43.7916 54.896V49.771C43.7916 48.358 42.6422 47.2085 41.2291 47.2085ZM42.0832 54.896C42.0832 55.3673 41.6995 55.7502 41.229 55.7502H36.104C35.6336 55.7502 35.2499 55.3673 35.2499 54.896V49.771C35.2499 49.2997 35.6336 48.9168 36.104 48.9168H41.229C41.6995 48.9168 42.0832 49.2997 42.0832 49.771V54.896Z" fill="#FF4E4E"/>
<path d="M54.8959 47.2085H49.7709C48.3578 47.2085 47.2084 48.3579 47.2084 49.771V54.896C47.2084 56.3091 48.3578 57.4585 49.7709 57.4585H54.8959C56.3089 57.4585 57.4584 56.3091 57.4584 54.896V49.771C57.4584 48.358 56.3089 47.2085 54.8959 47.2085ZM55.7501 54.896C55.7501 55.3673 55.3663 55.7502 54.8959 55.7502H49.7709C49.3004 55.7502 48.9167 55.3673 48.9167 54.896V49.771C48.9167 49.2997 49.3004 48.9168 49.7709 48.9168H54.8959C55.3663 48.9168 55.7501 49.2997 55.7501 49.771V54.896Z" fill="#FF4E4E"/>
</g>
<defs>
<clipPath id="clip0_68_144">
<rect width="41" height="41" fill="white" transform="translate(25 25)"/>
</clipPath>
</defs>
</svg>
