<svg width="153" height="34" viewBox="0 0 153 34" fill="none" xmlns="http://www.w3.org/2000/svg">
<g clip-path="url(#clip0_3_266)">
<path d="M0 4.86525V11.6182C0 13.6749 2.50611 14.7719 4.03763 13.3322L11.3471 6.5792C12.9483 5.1052 11.904 2.5 9.71119 2.5H2.40169C1.07902 2.5 0 3.56265 0 4.86525Z" fill="black"/>
<path d="M34.5982 2.5H27.2887C25.1307 2.5 24.0517 5.1052 25.6528 6.5792L32.9623 13.3322C34.4938 14.7376 36.9999 13.6749 36.9999 11.6182V4.86525C36.9999 3.56265 35.9209 2.5 34.5982 2.5Z" fill="black"/>
<path d="M20.1533 18.9882L32.9624 30.8487C34.4939 32.2542 37 31.1915 37 29.1348V22.3133C37 21.662 36.7215 21.0449 36.2342 20.5993L20.1533 5.68796C19.2135 4.83098 17.7865 4.83098 16.8467 5.68796L0.765757 20.5993C0.278457 21.0449 0 21.662 0 22.3133V29.1348C0 31.1915 2.50611 32.2884 4.03763 30.8487L16.8467 18.9882C17.7865 18.1312 19.2135 18.1312 20.1533 18.9882Z" fill="black"/>
</g>
<path d="M48.7699 6.63636H54.0795L59.6875 20.3182H59.9261L65.5341 6.63636H70.8438V27H66.6676V13.7457H66.4986L61.2287 26.9006H58.3849L53.1151 13.696H52.946V27H48.7699V6.63636ZM81.2717 27.2983C79.7006 27.2983 78.3484 26.9801 77.2148 26.3438C76.0879 25.7008 75.2196 24.7926 74.6097 23.6193C73.9999 22.4394 73.695 21.044 73.695 19.4332C73.695 17.8622 73.9999 16.4834 74.6097 15.2969C75.2196 14.1103 76.078 13.1856 77.185 12.5227C78.2987 11.8598 79.6045 11.5284 81.1026 11.5284C82.1102 11.5284 83.0482 11.6908 83.9165 12.0156C84.7915 12.3338 85.5539 12.8144 86.2035 13.4574C86.8597 14.1004 87.3701 14.9091 87.7347 15.8835C88.0993 16.8513 88.2816 17.9848 88.2816 19.2841V20.4474H75.3853V17.8224H84.2944C84.2944 17.2126 84.1618 16.6723 83.8967 16.2017C83.6315 15.7311 83.2636 15.3632 82.793 15.098C82.329 14.8262 81.7887 14.6903 81.1722 14.6903C80.5292 14.6903 79.9592 14.8395 79.462 15.1378C78.9715 15.4295 78.587 15.8239 78.3086 16.321C78.0302 16.8116 77.8877 17.3584 77.881 17.9616V20.4574C77.881 21.2131 78.0202 21.866 78.2987 22.4162C78.5837 22.9664 78.9847 23.3906 79.5018 23.6889C80.0188 23.9872 80.632 24.1364 81.3413 24.1364C81.8119 24.1364 82.2428 24.0701 82.6339 23.9375C83.025 23.8049 83.3597 23.6061 83.6381 23.3409C83.9165 23.0758 84.1287 22.7509 84.2745 22.3665L88.1921 22.625C87.9933 23.5663 87.5856 24.3883 86.9691 25.0909C86.3593 25.7869 85.5704 26.3305 84.6026 26.7216C83.6415 27.1061 82.5311 27.2983 81.2717 27.2983ZM108.158 6.63636V27H104.439L95.5799 14.1832H95.4308V27H91.1254V6.63636H94.9038L103.694 19.4432H103.873V6.63636H108.158ZM118.596 27.2983C117.025 27.2983 115.673 26.9801 114.539 26.3438C113.412 25.7008 112.544 24.7926 111.934 23.6193C111.324 22.4394 111.019 21.044 111.019 19.4332C111.019 17.8622 111.324 16.4834 111.934 15.2969C112.544 14.1103 113.402 13.1856 114.509 12.5227C115.623 11.8598 116.929 11.5284 118.427 11.5284C119.434 11.5284 120.372 11.6908 121.241 12.0156C122.116 12.3338 122.878 12.8144 123.528 13.4574C124.184 14.1004 124.694 14.9091 125.059 15.8835C125.424 16.8513 125.606 17.9848 125.606 19.2841V20.4474H112.71V17.8224H121.619C121.619 17.2126 121.486 16.6723 121.221 16.2017C120.956 15.7311 120.588 15.3632 120.117 15.098C119.653 14.8262 119.113 14.6903 118.496 14.6903C117.853 14.6903 117.283 14.8395 116.786 15.1378C116.296 15.4295 115.911 15.8239 115.633 16.321C115.354 16.8116 115.212 17.3584 115.205 17.9616V20.4574C115.205 21.2131 115.344 21.866 115.623 22.4162C115.908 22.9664 116.309 23.3906 116.826 23.6889C117.343 23.9872 117.956 24.1364 118.665 24.1364C119.136 24.1364 119.567 24.0701 119.958 23.9375C120.349 23.8049 120.684 23.6061 120.962 23.3409C121.241 23.0758 121.453 22.7509 121.599 22.3665L125.516 22.625C125.317 23.5663 124.91 24.3883 124.293 25.0909C123.683 25.7869 122.895 26.3305 121.927 26.7216C120.966 27.1061 119.855 27.2983 118.596 27.2983ZM128.45 6.63636H133.759L139.367 20.3182H139.606L145.214 6.63636H150.523V27H146.347V13.7457H146.178L140.908 26.9006H138.065L132.795 13.696H132.626V27H128.45V6.63636Z" fill="black"/>
<defs>
<clipPath id="clip0_3_266">
<rect width="37" height="29" fill="white" transform="translate(0 2.5)"/>
</clipPath>
</defs>
</svg>
